<svg xmlns="http://www.w3.org/2000/svg" xmlns:xlink="http://www.w3.org/1999/xlink" version="1.1" width="400" height="402" style="display: block;"><rect id="backgroundrect" width="100%" height="100%" x="0" y="0" fill="none" stroke="none"/><defs><linearGradient id="svg_1"><stop stop-color="#bb2546" stop-opacity="1" offset="0"/><stop stop-color="#44dab9" stop-opacity="1" offset="1"/></linearGradient><linearGradient id="svg_2" x1="0" y1="0" x2="1" y2="0.60546875" spreadMethod="pad"><stop stop-color="#bb2546" stop-opacity="1" offset="0"/><stop stop-color="#44dab9" stop-opacity="1" offset="1"/></linearGradient><linearGradient id="svg_3" x2="0.98828125" y2="0.734375"><stop stop-color="#4a90d6" stop-opacity="1" offset="0"/><stop stop-color="#b56f29" stop-opacity="1" offset="1"/></linearGradient><linearGradient id="svg_4" x2="1" y2="1"><stop stop-color="#1fceb2" stop-opacity="1" offset="0"/><stop stop-color="#e0314d" stop-opacity="1" offset="1"/></linearGradient><linearGradient id="svg_5" x2="1" y2="1" x1="0.0" y1="0.0" spreadMethod="repeat"><stop stop-color="#1fceb2" stop-opacity="1" offset="0"/><stop stop-color="#e0314d" stop-opacity="1" offset="1"/></linearGradient><linearGradient id="svg_6" x2="1" y2="1"><stop stop-color="#f73347" stop-opacity="1" offset="0"/><stop stop-color="#08ccb8" stop-opacity="1" offset="1"/></linearGradient><linearGradient id="svg_7" x1="1" y1="1" x2="0" y2="0"><stop stop-color="#b3e449" stop-opacity="1" offset="0"/><stop stop-color="#4c1bb6" stop-opacity="1" offset="1"/></linearGradient><linearGradient id="svg_8" x2="1" y2="1" x1="0" y1="0"><stop stop-color="#9b59b6" stop-opacity="1" offset="0"/><stop stop-color="#64a649" stop-opacity="1" offset="1"/></linearGradient><linearGradient id="svg_9" x2="1" y2="1"><stop stop-color="#55276b" stop-opacity="1" offset="0"/><stop stop-color="#aad894" stop-opacity="1" offset="1"/></linearGradient><linearGradient id="svg_10" x2="1" y2="1"><stop stop-color="#eb1a1a" stop-opacity="1" offset="0"/><stop stop-color="#14e5e5" stop-opacity="1" offset="1"/></linearGradient><linearGradient id="svg_11" x2="1" y2="1"><stop stop-color="#9eea1c" stop-opacity="1" offset="0"/><stop stop-color="#6115e3" stop-opacity="1" offset="1"/></linearGradient><linearGradient id="svg_12" x2="1" y2="1" x1="0.48046875" y1="0.54296875"><stop stop-color="#9eea1c" stop-opacity="1" offset="0"/><stop stop-color="#6115e3" stop-opacity="1" offset="1"/></linearGradient><linearGradient id="svg_13" x2="1" y2="1" x1="0.10546875" y1="0.12890625"><stop stop-color="#9eea1c" stop-opacity="1" offset="0"/><stop stop-color="#6115e3" stop-opacity="1" offset="1"/><stop stop-color="#6115e3" stop-opacity="1" offset="1"/></linearGradient></defs><g class="currentLayer"><title>Layer 1</title><g id="svgg" class="selected" fill="none" stroke-opacity="1" stroke="url(#svg_13)" stroke-width="1" opacity="1"><path id="path0" d="M196.70377648377206,178.57330472897368 C196.65510260585881,178.644736444639 196.26485263176627,178.70318057563793 195.83637934766548,178.70318057563793 C195.40790606356464,178.70318057563793 195.05745414258948,178.76162470663678 195.05745414258948,178.83305642230218 C195.05745414258948,178.9044881379675 194.73534759757544,178.9629322689664 194.34166182033613,178.9629322689664 C193.94797604309682,178.9629322689664 193.62586949808284,179.0213763999653 193.62586949808284,179.09280811563067 C193.62586949808284,179.16423983129602 193.40426019511324,179.22268396229484 193.1332612219081,179.22268396229484 C192.86226224870302,179.22268396229484 192.6008548926161,179.28112809329374 192.55218101470288,179.3525598089591 C192.50350713678964,179.42399152462448 192.27431043520414,179.48243565562336 192.04268003972297,179.48243565562336 C191.81104964424182,179.48243565562336 191.62165099577356,179.5408797866223 191.62165099577356,179.61231150228758 C191.62165099577356,179.68374321795298 191.46446300180676,179.74218734895183 191.27220118404952,179.74218734895183 C191.0799393662923,179.74218734895183 190.88295331920816,179.80063147995077 190.83427944129494,179.8720631956161 C190.7856055633817,179.9434949112814 190.62083017079905,180.00193904228038 190.46793693076572,180.00193904228038 C190.31504369073244,180.00193904228038 190.19006635126698,180.06038317327923 190.19006635126698,180.13181488894458 C190.19006635126698,180.20324660460992 190.0612237332614,180.26169073560882 189.90374942236565,180.26169073560882 C189.74627511146994,180.26169073560882 189.61743249346432,180.32013486660773 189.61743249346432,180.39156658227304 C189.61743249346432,180.46299829793844 189.45637922095733,180.52144242893735 189.2595363323377,180.52144242893735 C189.06269344371808,180.52144242893735 188.90164017121103,180.5798865599362 188.90164017121103,180.65131827560157 C188.90164017121103,180.7227499912669 188.7869702411861,180.78119412226582 188.64696126295334,180.78119412226582 C188.50680912625614,180.78119412226582 188.29937251126708,180.8980823842636 188.18584784895776,181.0409458155943 C188.07232318664836,181.18380924692497 187.86488657165933,181.3006975089228 187.72473443496213,181.3006975089228 C187.58472545672942,181.3006975089228 187.47005552670447,181.35914163992172 187.47005552670447,181.43057335558706 C187.47005552670447,181.50200507125237 187.34121290869882,181.56044920225125 187.1837385978031,181.56044920225125 C187.0262642869074,181.56044920225125 186.8974216689018,181.61889333325016 186.8974216689018,181.6903250489155 C186.8974216689018,181.76175676458087 186.7827517388768,181.82020089557977 186.64274276064407,181.82020089557977 C186.50259062394684,181.82020089557977 186.29515400895787,181.9370891575776 186.1816293466485,182.0799525889082 C186.06810468433906,182.2228160202389 185.88643659295124,182.3397042822367 185.77792247689763,182.3397042822367 C185.66955151930853,182.3397042822367 185.40012728921232,182.51503667523346 185.17952009549387,182.72933182222945 C184.9589129017754,182.94362696922545 184.7039476765887,183.11895936222214 184.6130420516626,183.11895936222214 C184.52227958520092,183.11895936222214 184.06846725289233,183.46962414821564 183.60477698653662,183.89821444220766 C183.14108672018094,184.32680473619965 182.70631446364428,184.67746952219312 182.63874366842356,184.67746952219312 C182.48814096382145,184.67746952219312 181.6005584842274,185.4950379769445 181.6005584842274,185.63374538118194 C181.6005584842274,185.6885529884742 181.2784519392134,186.01791813561474 180.88476616197408,186.3658555288283 C180.49108038473474,186.71379292204182 180.16897383972073,187.06640584573518 180.16897383972073,187.14952638760028 C180.16897383972073,187.23264692946543 179.9757099127124,187.46447531576112 179.73949844636877,187.66461399547072 C179.50328698002517,187.86475267518028 179.3100230530168,188.1091790186024 179.3100230530168,188.20749503452723 C179.3100230530168,188.30594092629875 179.1811804350112,188.47075337571567 179.02370612411545,188.5737449221204 C178.86623181321977,188.67673646852515 178.73738919521415,188.86492657034168 178.73738919521415,188.9920750242259 C178.73738919521415,189.11909360226358 178.67296788621135,189.22312415544158 178.5942307307635,189.22312415544158 C178.5154935753156,189.22312415544158 178.4510722663128,189.3271547086197 178.4510722663128,189.4541732866573 C178.4510722663128,189.5813217405416 178.32222964830723,189.76951184235807 178.16475533741152,189.8725033887628 C178.00728102651578,189.97549493516757 177.87843840851016,190.16368503698405 177.87843840851016,190.29083349086838 C177.87843840851016,190.41785206890597 177.8140170995074,190.52188262208406 177.73527994405953,190.52188262208406 C177.6565427886117,190.52188262208406 177.59212147960886,190.6387708840819 177.59212147960886,190.78163431541256 C177.59212147960886,190.9244977467432 177.52770017060607,191.041386008741 177.4489630151582,191.041386008741 C177.37022585971033,191.041386008741 177.30580455070753,191.15827427073884 177.30580455070753,191.3011377020695 C177.30580455070753,191.44400113340018 177.24138324170474,191.56088939539796 177.16264608625687,191.56088939539796 C177.08390893080903,191.56088939539796 177.01948762180623,191.70699972289532 177.01948762180623,191.8855790120586 C177.01948762180623,192.06415830122194 176.95506631280347,192.2102686287192 176.87632915735554,192.2102686287192 C176.7975920019077,192.2102686287192 176.73317069290493,192.32715689071702 176.73317069290493,192.47002032204773 C176.73317069290493,192.61288375337838 176.6687493839021,192.7297720153762 176.59001222845427,192.7297720153762 C176.51127507300637,192.7297720153762 176.4468537640036,192.90510440837292 176.4468537640036,193.11939955536894 C176.4468537640036,193.3336947023649 176.38243245500075,193.50902709536166 176.3036952995529,193.50902709536166 C176.22495814410505,193.50902709536166 176.16053683510228,193.68435948835838 176.16053683510228,193.8986546353544 C176.16053683510228,194.11294978235037 176.09611552609948,194.28828217534712 176.01737837065164,194.28828217534712 C175.93864121520375,194.28828217534712 175.87421990620095,194.46010792048392 175.87421990620095,194.67024704038664 C175.87421990620095,194.88038616028942 175.81667020349178,195.0845509912456 175.74623623898205,195.12403324863155 C175.61853888869206,195.19546496429686 175.5063026525627,195.71730611619378 175.35283677867162,196.95073703196408 C175.30845765469195,197.30789561029079 175.2033793417851,197.67648326312386 175.11934532315257,197.7698639968755 C174.8907212554249,198.0239011529507 174.89959708022081,205.40461564303303 175.1287937818064,205.61254687354253 C175.2238510022016,205.69878443572753 175.30158604839832,206.07555426690055 175.30158604839832,206.4499863328335 C175.30158604839832,206.8244183987665 175.3660073574011,207.16677113057352 175.44474451284893,207.21092891843927 C175.52348166829682,207.25508670630515 175.58790297729962,207.48886323030078 175.58790297729962,207.7304323050963 C175.58790297729962,207.9720013798918 175.6523242863024,208.20577790388745 175.73106144175028,208.24993569175328 C175.80979859719812,208.29409347961908 175.87421990620095,208.5278700036148 175.87421990620095,208.76943907841022 C175.87421990620095,209.01100815320572 175.93864121520375,209.2447846772014 176.01737837065164,209.2889424650672 C176.09611552609948,209.33310025293304 176.16053683510228,209.5084326459298 176.16053683510228,209.6785700050599 C176.16053683510228,209.84870736419012 176.22495814410505,210.0240397571868 176.3036952995529,210.06819754505267 C176.38243245500075,210.11235533291853 176.4468537640036,210.29106449792852 176.4468537640036,210.46548775999855 C176.4468537640036,210.63991102206865 176.51127507300637,210.78251470170596 176.59001222845427,210.78251470170596 C176.6687493839021,210.78251470170596 176.73317069290493,210.89940296370386 176.73317069290493,211.04226639503452 C176.73317069290493,211.18512982636517 176.7975920019077,211.30201808836296 176.87632915735554,211.30201808836296 C176.95506631280347,211.30201808836296 177.01948762180623,211.41890635036083 177.01948762180623,211.56176978169148 C177.01948762180623,211.70463321302213 177.08390893080903,211.82152147501995 177.16264608625687,211.82152147501995 C177.24138324170474,211.82152147501995 177.30580455070753,211.9968538680167 177.30580455070753,212.21114901501267 C177.30580455070753,212.42544416200866 177.37022585971033,212.6007765550054 177.4489630151582,212.6007765550054 C177.52770017060607,212.6007765550054 177.59212147960886,212.71766481700323 177.59212147960886,212.8605282483339 C177.59212147960886,213.0033916796646 177.6565427886117,213.12027994166237 177.73527994405953,213.12027994166237 C177.8140170995074,213.12027994166237 177.87843840851016,213.23716820366016 177.87843840851016,213.38003163499081 C177.87843840851016,213.52289506632155 177.94285971751293,213.63978332831937 178.02159687296088,213.63978332831937 C178.1003340284087,213.63978332831937 178.16475533741152,213.7438138814974 178.16475533741152,213.87083245953502 C178.16475533741152,213.99798091341933 178.29359795541708,214.1861710152358 178.4510722663128,214.28916256164055 C178.60854657720856,214.3921541080453 178.73738919521415,214.58034420986178 178.73738919521415,214.70749266374614 C178.73738919521415,214.83451124178376 178.80181050421697,214.93854179496182 178.8805476596648,214.93854179496182 C178.9592848151127,214.93854179496182 179.02370612411545,215.04257234813986 179.02370612411545,215.16959092617745 C179.02370612411545,215.29673938006178 179.15254874212107,215.48492948187825 179.3100230530168,215.58792102828303 C179.46749736391249,215.6909125746878 179.59633998191808,215.84117892927827 179.59633998191808,215.9219617059034 C179.59633998191808,216.00274448252864 179.78960390892652,216.2523658598173 180.0258153752701,216.47666144700642 C180.26202684161368,216.70082715834894 180.45529076862204,216.91784969812488 180.45529076862204,216.95889046567075 C180.45529076862204,216.99993123321667 180.77739731363607,217.31799718169742 181.17108309087538,217.66593457491092 C181.5647688681147,218.0138719681244 181.88687541312868,218.36167948549127 181.88687541312868,218.43895561425649 C181.88687541312868,218.61130086277993 183.60191381724758,220.26345150819574 183.78100505627535,220.26345150819574 C183.85172533771402,220.26345150819574 184.22336471142796,220.55567216319028 184.60688623769124,220.912830741517 C184.99040776395458,221.26998931984366 185.3790829949381,221.56220997483817 185.47070441218654,221.56220997483817 C185.5623258294349,221.56220997483817 185.81786368847938,221.73754236783492 186.03847088219783,221.95183751483094 C186.25907807591628,222.16613266182696 186.51318435031624,222.3414650548237 186.60294470752677,222.3414650548237 C186.69270506473734,222.3414650548237 186.90457959212435,222.45835331682144 187.07350658017612,222.60121674815215 C187.52803470480697,222.98525962673827 187.91169938953473,222.91071089075308 188.47216477785906,222.32925672523726 C188.7477448219266,222.04339998672924 189.31135969646883,221.4922068934862 189.72480134180233,221.1042677395001 C190.51661080867893,220.3611181448873 190.6677861471388,220.0036998148673 190.19006635126698,220.0036998148673 C190.03259204037124,220.0036998148673 189.90374942236565,219.94525568386837 189.90374942236565,219.87382396820308 C189.90374942236565,219.8023922525377 189.77490680436006,219.74394812153884 189.61743249346432,219.74394812153884 C189.4599581825686,219.74394812153884 189.33111556456305,219.6855039905399 189.33111556456305,219.61407227487453 C189.33111556456305,219.5426405592092 189.24665207053712,219.48419642821034 189.1434348176682,219.48419642821034 C189.0400744063348,219.48419642821034 188.81731983564964,219.3673081662125 188.6482496891334,219.2244447348818 C188.47932270108163,219.0815813035512 188.30223568055615,218.96469304155335 188.25499338728739,218.96469304155335 C188.16752356550808,218.96469304155335 187.41307845785306,218.34765289405152 186.1611576862321,217.25228000328528 C185.77878142768432,216.91758994643158 185.46583702439517,216.56523677443147 185.46583702439517,216.46925852374653 C185.46583702439517,216.37315039721503 185.3369944063896,216.21041596134472 185.17952009549387,216.10742441493997 C185.0220457845981,216.00443286853522 184.8932031665925,215.81624276671874 184.8932031665925,215.68909431283444 C184.8932031665925,215.56207573479685 184.82878185758977,215.45804518161873 184.75004470214185,215.45804518161873 C184.671307546694,215.45804518161873 184.60688623769124,215.34115691962097 184.60688623769124,215.1982934882903 C184.60688623769124,215.05543005695958 184.54246492868847,214.93854179496182 184.46372777324055,214.93854179496182 C184.3849906177927,214.93854179496182 184.32056930878994,214.82165353296404 184.32056930878994,214.6787901016333 C184.32056930878994,214.53592667030264 184.2561479997871,214.4190384083048 184.17741084433925,214.4190384083048 C184.0986736888914,214.4190384083048 184.03425237988856,214.302150146307 184.03425237988856,214.1592867149764 C184.03425237988856,214.01642328364568 183.96983107088585,213.8995350216478 183.89109391543792,213.8995350216478 C183.81235675999008,213.8995350216478 183.74793545098723,213.7242026286511 183.74793545098723,213.5099074816551 C183.74793545098723,213.29561233465913 183.68351414198446,213.12027994166237 183.60477698653662,213.12027994166237 C183.52131560176187,213.12027994166237 183.46161852208593,212.68740374473052 183.46161852208593,212.08127316834842 C183.46161852208593,211.4751425919664 183.52131560176187,211.04226639503452 183.60477698653662,211.04226639503452 C183.68351414198446,211.04226639503452 183.74793545098723,210.9253781330367 183.74793545098723,210.78251470170596 C183.74793545098723,210.63965127037537 183.81235675999008,210.52276300837747 183.89109391543792,210.52276300837747 C183.96983107088585,210.52276300837747 184.03425237988856,210.461851236292 184.03425237988856,210.3874323761534 C184.03425237988856,210.31301351601476 184.1630949978942,210.1266416760516 184.32056930878994,209.97338817698775 C184.47804361968562,209.82000480207728 184.60688623769124,209.61791798466774 184.60688623769124,209.52414762337614 C184.60688623769124,209.43050713793122 184.69392658407722,209.3538803883993 184.80043648162854,209.3538803883993 C184.90680322071535,209.3538803883993 185.19612647737011,209.1785479954026 185.44336114547647,208.96425284840663 C185.6904526551183,208.74995770141058 185.98994016274906,208.57462530841386 186.10876168824305,208.57462530841386 C186.22758321373718,208.57462530841386 186.32478781109916,208.51618117741492 186.32478781109916,208.44474946174967 C186.32478781109916,208.37331774608427 186.58247304711034,208.31487361508542 186.8974216689018,208.31487361508542 C187.21237029069323,208.31487361508542 187.47005552670447,208.25642948408648 187.47005552670447,208.18499776842114 C187.47005552670447,208.11356605275583 187.75608613867684,208.0551219217569 188.10582226732987,208.0551219217569 C188.45555839598282,208.0551219217569 188.78138706107245,207.99667779075804 188.8300609389857,207.92524607509264 C188.87873481689894,207.85381435942728 189.20456348198863,207.79537022842842 189.55429961064158,207.79537022842842 C189.90403573929456,207.79537022842842 190.19006635126698,207.73692609742952 190.19006635126698,207.6654943817642 C190.19006635126698,207.5897767631589 190.66721351328098,207.53561853509993 191.33533406687226,207.53561853509993 C192.00345462046351,207.53561853509993 192.48060178247755,207.5897767631589 192.48060178247755,207.6654943817642 C192.48060178247755,207.73692609742952 192.57938112294852,207.79537022842842 192.70006370848043,207.79537022842842 C192.98509221120167,207.79537022842842 193.91218642698414,208.636446211426 193.91218642698414,208.89502902213462 C193.91218642698414,209.00451436087255 193.97660773598696,209.09412869507088 194.05534489143483,209.09412869507088 C194.13408204688264,209.09412869507088 194.19850335588546,209.29517650570708 194.19850335588546,209.5410314834425 C194.19850335588546,209.78688646117791 194.2629246648883,210.0240397571868 194.34166182033613,210.06819754505267 C194.420398975784,210.11235533291853 194.48482028478682,210.58328515292305 194.48482028478682,211.11486699331982 C194.48482028478682,211.67255387889605 194.54537631524943,212.08127316834842 194.62797874923749,212.08127316834842 C194.71144013401218,212.08127316834842 194.77113721368812,212.51414936528033 194.77113721368812,213.12027994166237 C194.77113721368812,213.72641051804445 194.830834293364,214.1592867149764 194.9142956781388,214.1592867149764 C194.99775706291354,214.1592867149764 195.05745414258948,214.59216291190825 195.05745414258948,215.1982934882903 C195.05745414258948,215.8044240646723 195.1171512222654,216.23730026160425 195.20061260704009,216.23730026160425 C195.2833581994926,216.23730026160425 195.34377107149078,216.64861706798987 195.34377107149078,217.21136911158604 C195.34377107149078,217.77412115518223 195.40418394348896,218.18543796156786 195.4869295359414,218.18543796156786 C195.56652564217603,218.18543796156786 195.6300880003921,218.5318168446214 195.6300880003921,218.96469304155335 C195.6300880003921,219.39756923848526 195.6936503586082,219.74394812153884 195.77324646484274,219.74394812153884 C195.85198362029064,219.74394812153884 195.91640492929344,219.89265596596934 195.91640492929344,220.07448215129932 C195.91640492929344,220.25630833662922 196.0788897864449,220.56320496229685 196.27759373510244,220.75633034628657 C196.47629768375995,220.94958560612298 196.74529243846268,221.2098568028381 196.87528032418393,221.33492724317583 C197.00541136836955,221.45986780766677 197.197100552269,221.56220997483817 197.30146307285358,221.56220997483817 C197.40582559343807,221.56220997483817 197.49114803825066,221.6206541058371 197.49114803825066,221.69208582150247 C197.49114803825066,221.7640370405545 197.87008849365156,221.8219616681667 198.34165247555202,221.8219616681667 C198.80949433737683,221.8219616681667 199.23195496597071,221.88040579916557 199.2806288438839,221.95183751483094 C199.33044798951278,222.0249576165029 200.02176021434502,222.08171336149522 200.86381830224383,222.08171336149522 C201.76485767749622,222.08171336149522 202.35853582957313,222.13327407262085 202.35853582957313,222.2115892081594 C202.35853582957313,222.289904343698 202.95507715093902,222.3414650548237 203.86169970630507,222.3414650548237 C204.7683222616711,222.3414650548237 205.36486358303705,222.39302576594937 205.36486358303705,222.4713409014879 C205.36486358303705,222.55186392641966 206.14650879893756,222.60121674815215 207.42362546030193,222.60121674815215 L209.4825304960314,222.60121674815215 L209.9300438559041,222.18587379051996 C210.46746073145184,221.68715053932917 210.6598657076736,221.12141135125978 210.66086781692474,220.03616877653334 C210.66144045078255,219.58212281659513 210.72485965053414,219.2244447348818 210.80488523216206,219.2244447348818 C210.88834661693681,219.2244447348818 210.94804369661276,218.7915685379499 210.94804369661276,218.18543796156786 C210.94804369661276,217.57930738518584 211.00774077628864,217.14643118825396 211.0912021610634,217.14643118825396 C211.17394775351588,217.14643118825396 211.23436062551409,216.73511438186824 211.23436062551409,216.17236233827217 C211.23436062551409,215.6096102946759 211.29477349751227,215.1982934882903 211.37751908996475,215.1982934882903 C211.46241205938398,215.1982934882903 211.52067755441536,214.72203875857255 211.52067755441536,214.02941086831206 C211.52067755441536,213.33678297805164 211.57894304944682,212.8605282483339 211.66383601886608,212.8605282483339 C211.7472974036408,212.8605282483339 211.80699448331669,212.42765205140196 211.80699448331669,211.82152147501995 C211.80699448331669,211.21539089863793 211.86669156299266,210.78251470170596 211.9501529477674,210.78251470170596 C212.0328985402198,210.78251470170596 212.09331141221801,210.37119789532036 212.09331141221801,209.80844585172414 C212.09331141221801,209.245693808128 212.1537242842162,208.83437700174238 212.2364698766687,208.83437700174238 C212.31993126144346,208.83437700174238 212.3796283411194,208.40150080481044 212.3796283411194,207.79537022842842 C212.3796283411194,207.1892396520464 212.4393254207953,206.75636345511447 212.52278680557006,206.75636345511447 C212.6015239610179,206.75636345511447 212.66594527002067,206.66609974168284 212.66594527002067,206.5557052720182 C212.66594527002067,206.32634452680912 213.2899730165611,205.7173566818005 213.52489605672463,205.7173566818005 C214.01578643132598,205.7173566818005 214.38384684342859,206.35478733722863 214.38384684342859,207.20508450533944 C214.38384684342859,207.68523551045715 214.32157291139256,208.0551219217569 214.2406883789779,208.0551219217569 C214.15722699420323,208.0551219217569 214.09752991452729,208.4879981186888 214.09752991452729,209.09412869507088 C214.09752991452729,209.7002592714529 214.03783283485137,210.13313546838478 213.95437145007662,210.13313546838478 C213.8716258576241,210.13313546838478 213.81121298562596,210.54445227477044 213.81121298562596,211.1072043183666 C213.81121298562596,211.6699563619628 213.75080011362775,212.08127316834842 213.6680545211753,212.08127316834842 C213.5845931364006,212.08127316834842 213.52489605672463,212.51414936528033 213.52489605672463,213.12027994166237 C213.52489605672463,213.72641051804445 213.46519897704871,214.1592867149764 213.38173759227402,214.1592867149764 C213.29827620749927,214.1592867149764 213.2385791278233,214.59216291190825 213.2385791278233,215.1982934882903 C213.2385791278233,215.8044240646723 213.17888204814741,216.23730026160425 213.09542066337264,216.23730026160425 C213.01281822938466,216.23730026160425 212.95226219892203,216.64601955105658 212.95226219892203,217.2037064366328 C212.95226219892203,217.73528827702958 212.88784088991923,218.20621809703414 212.80910373447134,218.2503758849 C212.7303665790235,218.29453367276588 212.66594527002067,218.76546349277035 212.66594527002067,219.29704533316712 C212.66594527002067,219.8547322187434 212.60538923955804,220.26345150819574 212.52278680557006,220.26345150819574 C212.14971584721158,220.26345150819574 212.3580114129873,222.81031686128162 212.74425295007518,222.96993427683196 C214.27433061812388,223.60242965008678 217.9628084546951,222.5909565562657 217.9628084546951,221.53896219828536 C217.9628084546951,221.44038643066716 218.0916510727007,221.2755739812502 218.2491253835964,221.17258243484548 C218.40659969449217,221.06959088844076 218.5354423124978,220.89425849544398 218.5354423124978,220.78295489485274 C218.5354423124978,220.6716512942615 218.66428493050333,220.49631890126474 218.82175924139904,220.39332735486 C218.97923355229477,220.2903358084553 219.10807617030042,220.11500341545852 219.10807617030042,220.0036998148673 C219.10807617030042,219.89239621427603 219.23691878830599,219.71706382127928 219.39439309920172,219.61407227487453 C219.55186741009743,219.51108072846978 219.68071002810308,219.32289062665333 219.68071002810308,219.19574217276906 C219.68071002810308,219.0687235947314 219.74513133710585,218.96469304155335 219.82386849255377,218.96469304155335 C219.90260564800158,218.96469304155335 219.96702695700435,218.8478047795555 219.96702695700435,218.70494134822485 C219.96702695700435,218.56207791689417 220.03144826600717,218.44518965489635 220.11018542145501,218.44518965489635 C220.18892257690285,218.44518965489635 220.25334388590568,218.3411591017183 220.25334388590568,218.2141405236807 C220.25334388590568,218.08699206979637 220.38218650391127,217.8988019679799 220.53966081480698,217.79581042157514 C220.69713512570272,217.69281887517036 220.82597774370836,217.5046287733539 220.82597774370836,217.37748031946958 C220.82597774370836,217.250461741432 220.8742221462282,217.1459116848673 220.93334659204632,217.14539218148062 C221.07865243346376,217.144093423014 221.398611601511,216.50159760956595 221.398611601511,216.21145496811803 C221.398611601511,216.0827480040738 221.46303291051376,215.97754856827575 221.54177006596166,215.97754856827575 C221.62050722140953,215.97754856827575 221.6849285304123,215.86066030627796 221.6849285304123,215.71779687494723 C221.6849285304123,215.5749334436166 221.7493498394151,215.45804518161873 221.82808699486296,215.45804518161873 C221.90682415031083,215.45804518161873 221.97124545931365,215.34115691962097 221.97124545931365,215.1982934882903 C221.97124545931365,215.05543005695958 222.0356667683164,214.93854179496182 222.11440392376426,214.93854179496182 C222.19314107921213,214.93854179496182 222.25756238821492,214.82165353296404 222.25756238821492,214.6787901016333 C222.25756238821492,214.53592667030264 222.32198369721775,214.4190384083048 222.40072085266561,214.4190384083048 C222.47945800811348,214.4190384083048 222.54387931711628,214.24370601530808 222.54387931711628,214.02941086831206 C222.54387931711628,213.81511572131612 222.60830062611905,213.63978332831937 222.68703778156691,213.63978332831937 C222.7657749370148,213.63978332831937 222.83019624601758,213.46445093532267 222.83019624601758,213.25015578832662 C222.83019624601758,213.03586064133063 222.8946175550204,212.8605282483339 222.97335471046824,212.8605282483339 C223.05209186591608,212.8605282483339 223.11651317491894,212.68519585533718 223.11651317491894,212.47090070834116 C223.11651317491894,212.25660556134517 223.18093448392167,212.08127316834842 223.25967163936951,212.08127316834842 C223.3384087948174,212.08127316834842 223.4028301038202,211.9059407753517 223.4028301038202,211.69164562835576 C223.4028301038202,211.4773504813597 223.46725141282303,211.30201808836296 223.54598856827087,211.30201808836296 C223.62472572371874,211.30201808836296 223.68914703272148,211.10097027772676 223.68914703272148,210.8551152999913 C223.68914703272148,210.6092603222559 223.75356834172433,210.372107026247 223.83230549717214,210.32794923838117 C223.91104265262004,210.28379145051528 223.97546396162286,210.05001492651965 223.97546396162286,209.80844585172414 C223.97546396162286,209.5668767769287 224.03988527062563,209.33310025293304 224.11862242607353,209.2889424650672 C224.19735958152137,209.2447846772014 224.26178089052422,208.95256402220681 224.26178089052422,208.63956323174602 C224.26178089052422,208.32656244128518 224.326202199527,208.03434178629058 224.4049393549748,207.99018399842475 C224.48367651042273,207.94602621055893 224.54809781942546,207.53691729356663 224.54809781942546,207.08105307177507 C224.54809781942546,206.62518884998357 224.60249803591674,206.2216645943978 224.6690667218863,206.18439022640516 C225.1092790000721,205.9374962418964 224.8520232394542,197.13438147914732 224.39176877624539,196.69747913096884 C224.32033270248448,196.6295540631634 224.26178089052422,196.35200937884193 224.26178089052422,196.08056885931367 C224.26178089052422,195.8091283397854 224.19735958152137,195.58704064198952 224.11862242607353,195.58704064198952 C224.03988527062563,195.58704064198952 223.97546396162286,195.3532641179939 223.97546396162286,195.06753725533258 C223.97546396162286,194.78181039267125 223.91104265262004,194.54803386867562 223.83230549717214,194.54803386867562 C223.75356834172433,194.54803386867562 223.68914703272148,194.3727014756789 223.68914703272148,194.15840632868284 C223.68914703272148,193.94411118168685 223.62472572371874,193.76877878869013 223.54598856827087,193.76877878869013 C223.46725141282303,193.76877878869013 223.4028301038202,193.62617510905278 223.4028301038202,193.45175184698272 C223.4028301038202,193.27732858491262 223.3384087948174,193.09861941990263 223.25967163936951,193.0544616320368 C223.18093448392167,193.01030384417095 223.11651317491894,192.8662715302203 223.11651317491894,192.73431767000943 C223.11651317491894,192.4750854800676 222.54072983089833,191.39360930489448 222.3649312365529,191.32282696846246 C222.30580679073475,191.2989298126762 222.25756238821492,191.16749545585205 222.25756238821492,191.03060631346787 C222.25756238821492,190.89358729523713 222.19314107921213,190.78163431541256 222.11440392376426,190.78163431541256 C222.0356667683164,190.78163431541256 221.97124545931365,190.6647460534147 221.97124545931365,190.52188262208406 C221.97124545931365,190.37901919075335 221.90682415031083,190.26213092875557 221.82808699486296,190.26213092875557 C221.7493498394151,190.26213092875557 221.6849285304123,190.15810037557748 221.6849285304123,190.03108179753983 C221.6849285304123,189.90393334365558 221.5560859124067,189.71574324183908 221.398611601511,189.61275169543433 C221.24113729061523,189.50976014902957 221.11229467260964,189.32157004721307 221.11229467260964,189.19442159332883 C221.11229467260964,189.0674030152912 221.0478733636068,188.96337246211314 220.96913620815891,188.96337246211314 C220.89039905271116,188.96337246211314 220.82597774370836,188.8593419089351 220.82597774370836,188.73232333089743 C220.82597774370836,188.60517487701313 220.69713512570272,188.41698477519662 220.53966081480698,188.31399322879196 C220.38218650391127,188.21100168238718 220.25334388590568,188.04748799143687 220.25334388590568,187.95047073397873 C220.25334388590568,187.8534534765205 219.99565864989452,187.5495439953262 219.68071002810308,187.27498645547794 C219.3657614063116,187.00042891562978 219.10807617030042,186.71067590172183 219.10807617030042,186.63119188356333 C219.10807617030042,186.44066401650687 216.02157967674412,183.63846274887916 215.81185252632395,183.63846274887916 C215.72266480297122,183.63846274887916 215.4022761595306,183.40468622488353 215.09963916568194,183.11895936222214 C214.79700217183324,182.83323249956086 214.46201136501867,182.5994559755652 214.35507199207402,182.5994559755652 C214.24813261912942,182.5994559755652 214.06789611238597,182.48256771356742 213.95437145007662,182.3397042822367 C213.84084678776728,182.19684085090606 213.64758286075886,182.0799525889082 213.52489605672463,182.0799525889082 C213.40220925269045,182.0799525889082 213.208945325682,181.9630643269104 213.09542066337264,181.82020089557977 C212.9818960010633,181.67733746424906 212.77445938607428,181.56044920225125 212.6343072493771,181.56044920225125 C212.4942982711443,181.56044920225125 212.3796283411194,181.50200507125237 212.3796283411194,181.43057335558706 C212.3796283411194,181.35914163992172 212.25078572311375,181.3006975089228 212.09331141221801,181.3006975089228 C211.93583710132233,181.3006975089228 211.80699448331669,181.24225337792382 211.80699448331669,181.1708216622585 C211.80699448331669,181.0993899465932 211.67815186531112,181.0409458155943 211.52067755441536,181.0409458155943 C211.36320324351968,181.0409458155943 211.23436062551409,180.98250168459538 211.23436062551409,180.91106996893 C211.23436062551409,180.83963825326472 211.11081487069313,180.78119412226582 210.95992584916212,180.78119412226582 C210.80903682763116,180.78119412226582 210.66416046160708,180.73742596193995 210.63781930414814,180.6837872372676 C210.5585095148425,180.5218320564773 209.36557003057519,180.00193904228038 209.07338360463135,180.00193904228038 C208.92335353388708,180.00193904228038 208.8006667298529,179.9434949112814 208.8006667298529,179.8720631956161 C208.8006667298529,179.80063147995077 208.60740280284446,179.74218734895183 208.37119133650089,179.74218734895183 C208.13497987015725,179.74218734895183 207.94171594314892,179.68374321795298 207.94171594314892,179.61231150228758 C207.94171594314892,179.5408797866223 207.7484520161405,179.48243565562336 207.51224054979693,179.48243565562336 C207.27602908345335,179.48243565562336 207.08276515644488,179.42399152462448 207.08276515644488,179.3525598089591 C207.08276515644488,179.28112809329374 206.8933665079767,179.22268396229484 206.66173611249548,179.22268396229484 C206.43010571701436,179.22268396229484 206.20090901542883,179.16423983129602 206.15223513751567,179.09280811563067 C206.1035612596024,179.0213763999653 205.7777325945127,178.9629322689664 205.42799646585976,178.9629322689664 C205.07826033720679,178.9629322689664 204.79222972523436,178.9044881379675 204.79222972523436,178.83305642230218 C204.79222972523436,178.7611052032502 204.41328926983346,178.70318057563793 203.94172528793297,178.70318057563793 C203.47388342610822,178.70318057563793 203.05142279751433,178.644736444639 203.00274891960106,178.57330472897368 C202.88306844332033,178.39758270843694 196.8234569600528,178.39758270843694 196.70377648377206,178.57330472897368 M208.2280328720502,185.58660044884283 C208.2280328720502,185.72946388017348 208.29245418105302,185.8463521421713 208.37119133650089,185.8463521421713 C208.44992849194878,185.8463521421713 208.51434980095155,185.96324040416908 208.51434980095155,186.1061038354998 C208.51434980095155,186.2489672668305 208.57877110995432,186.3658555288283 208.6575082654022,186.3658555288283 C208.73624542085005,186.3658555288283 208.8006667298529,186.48274379082608 208.8006667298529,186.62560722215673 C208.8006667298529,186.76847065348744 208.86508803885562,186.8853589154852 208.9438251943035,186.8853589154852 C209.02256234975135,186.8853589154852 209.08698365875415,187.06069130848195 209.08698365875415,187.27498645547794 C209.08698365875415,187.48928160247397 209.15140496775695,187.66461399547072 209.23014212320484,187.66461399547072 C209.30887927865268,187.66461399547072 209.37330058765548,187.83994638846744 209.37330058765548,188.05424153546343 C209.37330058765548,188.2685366824594 209.4377218966583,188.44386907545615 209.51645905210611,188.44386907545615 C209.595196207554,188.44386907545615 209.65961751655684,188.6776455994518 209.65961751655684,188.96337246211314 C209.65961751655684,189.2490993247745 209.72403882555957,189.48287584877016 209.80277598100747,189.48287584877016 C209.8923931797536,189.48287584877016 209.9459344454581,190.28382019514848 209.9459344454581,191.6258273187301 C209.9459344454581,192.96783444231178 209.8923931797536,193.76877878869013 209.80277598100747,193.76877878869013 C209.72403882555957,193.76877878869013 209.65961751655684,194.06099944368472 209.65961751655684,194.41815802201137 C209.65961751655684,194.775316600338 209.595196207554,195.06753725533258 209.51645905210611,195.06753725533258 C209.4377218966583,195.06753725533258 209.37330058765548,195.24286964832936 209.37330058765548,195.45716479532533 C209.37330058765548,195.67145994232132 209.30887927865268,195.84679233531804 209.23014212320484,195.84679233531804 C209.15140496775695,195.84679233531804 209.08698365875415,195.96368059731583 209.08698365875415,196.1065440286465 C209.08698365875415,196.24940745997716 209.02256234975135,196.366295721975 208.9438251943035,196.366295721975 C208.86508803885562,196.366295721975 208.8006667298529,196.5416281149717 208.8006667298529,196.7559232619677 C208.8006667298529,196.97021840896372 208.73624542085005,197.14555080196047 208.6575082654022,197.14555080196047 C208.57877110995432,197.14555080196047 208.51434980095155,197.24958135513853 208.51434980095155,197.3765999331761 C208.51434980095155,197.50374838706043 208.38550718294596,197.69193848887696 208.2280328720502,197.7949300352817 C208.0705585611545,197.8979215816865 207.94171594314892,198.05688961800345 207.94171594314892,198.1483222140551 C207.94171594314892,198.23962493426004 207.87729463414612,198.3144334219386 207.79855747869823,198.3144334219386 C207.71982032325036,198.3144334219386 207.6553990142476,198.40664527307024 207.6553990142476,198.51937750797484 C207.6553990142476,198.63223961872603 207.39771377823638,198.9490068087401 207.08276515644488,199.22356434858835 C206.76781653465343,199.49812188843654 206.51013129864225,199.78722552311118 206.51013129864225,199.86619003788306 C206.51013129864225,200.03567801777987 205.2861264275891,201.171702048552 205.10359938541455,201.171702048552 C205.03445384708488,201.171702048552 204.77290333253353,201.3493722067887 204.52251917820934,201.5663947465646 C204.1079322651602,201.92589109013127 204.0470899177687,201.9429048260443 203.84151436281752,201.75627323438778 C203.6357956494019,201.56977151857797 203.64266725569553,201.53028926119202 203.91767466590525,201.31391610064938 C204.08373848466803,201.18326099890513 204.21959586743174,201.00429208220183 204.21959586743174,200.91636613401008 C204.21959586743174,200.82844018581838 204.4128597944401,200.59258564827613 204.6490712607837,200.39244696856653 C204.88528272712728,200.19230828885696 205.07854665413566,199.94788194543483 205.07854665413566,199.84956592951005 C205.07854665413566,199.7511200377385 205.20738927214128,199.5863075883216 205.36486358303705,199.48331604191685 C205.52233789393273,199.3803244955121 205.65118051193832,199.19213439369562 205.65118051193832,199.0649859398113 C205.65118051193832,198.93796736177364 205.71560182094115,198.8339368085956 205.79433897638899,198.8339368085956 C205.87307613183683,198.8339368085956 205.93749744083968,198.71704854659782 205.93749744083968,198.57418511526714 C205.93749744083968,198.43132168393646 206.00191874984242,198.3144334219386 206.0806559052903,198.3144334219386 C206.15939306073815,198.3144334219386 206.22381436974095,198.19754515994083 206.22381436974095,198.05468172861018 C206.22381436974095,197.91181829727952 206.28823567874377,197.7949300352817 206.3669728341916,197.7949300352817 C206.44570998963948,197.7949300352817 206.51013129864225,197.7072638387833 206.51013129864225,197.60011626528532 C206.51013129864225,197.4929686917873 206.57455260764507,197.40530249528894 206.65328976309294,197.40530249528894 C206.73202691854084,197.40530249528894 206.79644822754358,197.28841423329115 206.79644822754358,197.14555080196047 C206.79644822754358,197.00268737062981 206.86086953654643,196.88579910863197 206.93960669199427,196.88579910863197 C207.0183438474421,196.88579910863197 207.08276515644488,196.77241749449405 207.08276515644488,196.63371009025673 C207.08276515644488,196.4950026860193 207.14718646544773,196.34551558650872 207.22592362089557,196.30135779864287 C207.30466077634347,196.25720001077707 207.36908208534626,196.07849084576708 207.36908208534626,195.90406758369696 C207.36908208534626,195.72964432162692 207.4335033943491,195.58704064198952 207.51224054979693,195.58704064198952 C207.59097770524477,195.58704064198952 207.6553990142476,195.3532641179939 207.6553990142476,195.06753725533258 C207.6553990142476,194.78181039267125 207.71982032325036,194.54803386867562 207.79855747869823,194.54803386867562 C207.87729463414612,194.54803386867562 207.94171594314892,194.31425734467993 207.94171594314892,194.02853048201865 C207.94171594314892,193.74280361935732 208.00613725215166,193.50902709536166 208.08487440759956,193.50902709536166 C208.16447051383412,193.50902709536166 208.2280328720502,193.16264821230806 208.2280328720502,192.7297720153762 C208.2280328720502,192.29689581844423 208.2915952302663,191.95051693539074 208.37119133650089,191.95051693539074 C208.46080853524703,191.95051693539074 208.51434980095155,191.1495725890123 208.51434980095155,189.8075654654307 C208.51434980095155,188.46555834184912 208.46080853524703,187.66461399547072 208.37119133650089,187.66461399547072 C208.2915952302663,187.66461399547072 208.2280328720502,187.31823511241714 208.2280328720502,186.8853589154852 C208.2280328720502,186.45248271855328 208.16447051383412,186.1061038354998 208.08487440759956,186.1061038354998 C208.00613725215166,186.1061038354998 207.94171594314892,185.93077144250304 207.94171594314892,185.71647629550702 C207.94171594314892,185.50218114851103 208.00613725215166,185.32684875551428 208.08487440759956,185.32684875551428 C208.1636115630474,185.32684875551428 208.2280328720502,185.44373701751215 208.2280328720502,185.58660044884283 M196.71394073474804,195.25312984021582 C196.9392721577934,195.45742454701863 196.99553343432248,196.1065440286465 196.78795366086905,196.1065440286465 C196.71608811171478,196.1065440286465 196.613872968097,196.34032055264217 196.56061801932137,196.62604741530347 C196.45625549873682,197.1860720661197 196.2025786997303,197.293869018851 195.81519189492678,196.9424249777776 C195.64798280844838,196.79072998887375 195.63252169428776,196.70176503390874 195.75377691367746,196.59176019178412 C195.84325095395917,196.51058778761896 195.91640492929344,196.34096993187546 195.91640492929344,196.2148604847645 C195.91640492929344,195.98770762894875 196.3477413826832,195.06753725533258 196.45425128023453,195.06753725533258 C196.48460087469812,195.06753725533258 196.6015613401543,195.1510474247377 196.71394073474804,195.25312984021582 " stroke="url(#svg_13)" fill="none" fill-rule="evenodd" fill-opacity="1" stroke-width="1" opacity="1" stroke-opacity="1"/></g></g></svg>