<svg xmlns="http://www.w3.org/2000/svg" xmlns:xlink="http://www.w3.org/1999/xlink" version="1.1" width="400" height="402" style="display: block;"><rect id="backgroundrect" width="100%" height="100%" x="0" y="0" fill="none" stroke="none"/><defs><linearGradient id="svg_1"><stop stop-color="#bb2546" stop-opacity="1" offset="0"/><stop stop-color="#44dab9" stop-opacity="1" offset="1"/></linearGradient><linearGradient id="svg_2" x1="0" y1="0" x2="1" y2="0.60546875" spreadMethod="pad"><stop stop-color="#bb2546" stop-opacity="1" offset="0"/><stop stop-color="#44dab9" stop-opacity="1" offset="1"/></linearGradient><linearGradient id="svg_3" x2="0.98828125" y2="0.734375"><stop stop-color="#4a90d6" stop-opacity="1" offset="0"/><stop stop-color="#b56f29" stop-opacity="1" offset="1"/></linearGradient><linearGradient id="svg_4" x2="1" y2="1"><stop stop-color="#1fceb2" stop-opacity="1" offset="0"/><stop stop-color="#e0314d" stop-opacity="1" offset="1"/></linearGradient><linearGradient id="svg_5" x2="1" y2="1" x1="0.0" y1="0.0" spreadMethod="repeat"><stop stop-color="#1fceb2" stop-opacity="1" offset="0"/><stop stop-color="#e0314d" stop-opacity="1" offset="1"/></linearGradient><linearGradient id="svg_6" x2="1" y2="1"><stop stop-color="#f73347" stop-opacity="1" offset="0"/><stop stop-color="#08ccb8" stop-opacity="1" offset="1"/></linearGradient><linearGradient id="svg_7" x1="1" y1="1" x2="0" y2="0"><stop stop-color="#b3e449" stop-opacity="1" offset="0"/><stop stop-color="#4c1bb6" stop-opacity="1" offset="1"/></linearGradient><linearGradient id="svg_8" x2="1" y2="1" x1="0" y1="0"><stop stop-color="#9b59b6" stop-opacity="1" offset="0"/><stop stop-color="#64a649" stop-opacity="1" offset="1"/></linearGradient><linearGradient id="svg_9" x2="1" y2="1"><stop stop-color="#55276b" stop-opacity="1" offset="0"/><stop stop-color="#aad894" stop-opacity="1" offset="1"/></linearGradient><linearGradient id="svg_10" x2="1" y2="1"><stop stop-color="#eb1a1a" stop-opacity="1" offset="0"/><stop stop-color="#14e5e5" stop-opacity="1" offset="1"/></linearGradient><linearGradient id="svg_11" x2="1" y2="1"><stop stop-color="#9eea1c" stop-opacity="1" offset="0"/><stop stop-color="#6115e3" stop-opacity="1" offset="1"/></linearGradient><linearGradient id="svg_12" x2="1" y2="1" x1="0.48046875" y1="0.54296875"><stop stop-color="#9eea1c" stop-opacity="1" offset="0"/><stop stop-color="#6115e3" stop-opacity="1" offset="1"/></linearGradient><linearGradient id="svg_13" x2="1" y2="1" x1="0.10546875" y1="0.12890625"><stop stop-color="#9eea1c" stop-opacity="1" offset="0"/><stop stop-color="#6115e3" stop-opacity="1" offset="1"/><stop stop-color="#6115e3" stop-opacity="1" offset="1"/></linearGradient><linearGradient id="svg_14" x2="1" y2="1" x1="0.13671875" y1="0.171875"><stop stop-color="#f0c13a" stop-opacity="1" offset="0"/><stop stop-color="#0f3ec5" stop-opacity="1" offset="1"/></linearGradient><linearGradient id="svg_15" x2="1" y2="1" x1="0.18359375" y1="0.171875"><stop stop-color="#f73347" stop-opacity="1" offset="0"/><stop stop-color="#08ccb8" stop-opacity="1" offset="1"/></linearGradient><linearGradient id="svg_16" x2="1" y2="1" x1="0.16796875" y1="0.171875"><stop stop-color="#9b59b6" stop-opacity="1" offset="0"/><stop stop-color="#64a649" stop-opacity="1" offset="1"/></linearGradient><linearGradient id="svg_17" x2="1" y2="1" x1="0.0703125" y1="0.09375"><stop stop-color="#f73347" stop-opacity="1" offset="0"/><stop stop-color="#08ccb8" stop-opacity="1" offset="1"/></linearGradient></defs><g class="currentLayer"><title>Layer 1</title><g id="svgg" class="selected" fill="none" stroke-opacity="1" stroke="url(#svg_17)" stroke-width="1.375" opacity="1"><path id="path0" d="M191.79478253826503,171.17359916097837 C191.74112399033427,171.25676935737974 191.31090869133624,171.3248176998899 190.83855565028668,171.3248176998899 C190.3662026092372,171.3248176998899 189.97986106413555,171.39286604240007 189.97986106413555,171.47603623880147 C189.97986106413555,171.5592064352028 189.62476773224057,171.62725477771298 189.19076477103573,171.62725477771298 C188.7567618098308,171.62725477771298 188.40166847793594,171.69530312022323 188.40166847793594,171.77847331662463 C188.40166847793594,171.86164351302597 188.1573642655923,171.92969185553605 187.85861240902463,171.92969185553605 C187.5598605524571,171.92969185553605 187.27168258621703,171.99774019804622 187.21802403828625,172.0809103944476 C187.16436549035546,172.16408059084904 186.9116968573049,172.23212893335923 186.6563452968578,172.23212893335923 C186.40099373641073,172.23212893335923 186.1921988572565,172.30017727586943 186.1921988572565,172.38334747227074 C186.1921988572565,172.46651766867217 186.01891331129178,172.53456601118225 185.8069620469652,172.53456601118225 C185.59501078263858,172.53456601118225 185.37785148277746,172.6026143536925 185.32419293484674,172.68578455009387 C185.2705343869159,172.76895474649515 185.08888442024443,172.83700308900544 184.92033345203828,172.83700308900544 C184.7517824838322,172.83700308900544 184.6140062710569,172.90505143151557 184.6140062710569,172.98822162791694 C184.6140062710569,173.07139182431828 184.47196893829897,173.1394401668285 184.29836775381702,173.1394401668285 C184.12476656933504,173.1394401668285 183.98272923657706,173.20748850933865 183.98272923657706,173.29065870574004 C183.98272923657706,173.37382890214144 183.8051825706296,173.44187724465164 183.58818109002715,173.44187724465164 C183.37117960942476,173.44187724465164 183.1936329434773,173.50992558716172 183.1936329434773,173.59309578356317 C183.1936329434773,173.6762659799645 183.0672197173228,173.74431432247474 182.9128724823924,173.74431432247474 C182.75836742820348,173.74431432247474 182.5296873224631,173.88041100749504 182.4045366503775,174.04675140029778 C182.27938597829186,174.2130917931005 182.05070587255156,174.34918847812094 181.89620081836262,174.34918847812094 C181.7418535834323,174.34918847812094 181.61544035727778,174.41723682063113 181.61544035727778,174.50040701703244 C181.61544035727778,174.58357721343378 181.4734030245197,174.65162555594398 181.29980184003773,174.65162555594398 C181.1262006555559,174.65162555594398 180.9841633227979,174.71967389845418 180.9841633227979,174.80284409485554 C180.9841633227979,174.8860142912569 180.8577500966433,174.95406263376714 180.70340286171293,174.95406263376714 C180.54889780752399,174.95406263376714 180.32021770178366,175.09015931878747 180.1950670296981,175.25649971159015 C180.06991635761239,175.42284010439286 179.86964371842376,175.55893678941322 179.7500167203898,175.55893678941322 C179.63054754161453,175.55893678941322 179.33353169689167,175.76308181694384 179.09033221935837,176.01259240614795 C178.84713274182502,176.26210299535197 178.5660566422228,176.46624802288252 178.4658414129992,176.46624802288252 C178.36578400303415,176.46624802288252 177.86549695320892,176.87453807794373 177.35432037453882,177.3735592563519 C176.8431437958688,177.87258043475998 176.36384670743996,178.28087048982118 176.28935601737135,178.28087048982118 C176.12333015730314,178.28087048982118 175.14485075385946,179.2327911922693 175.14485075385946,179.39429259182694 C175.14485075385946,179.45810681524753 174.7897574219645,179.84159702992724 174.35575446075964,180.24671149567132 C173.9217514995547,180.6518259614154 173.5666581676598,181.0623842945602 173.5666581676598,181.1591641594636 C173.5666581676598,181.255944024367 173.35360216852294,181.52586911632412 173.0932003917999,181.7588968847868 C172.83279861507697,181.99192465324947 172.61974261594008,182.276517943481 172.61974261594008,182.39099037743705 C172.61974261594008,182.50561402993205 172.47770528318213,182.69751035581078 172.30410409870012,182.8174266571676 C172.13050291421817,182.9373429585245 171.9884655814602,183.15645862140738 171.9884655814602,183.30450157100174 C171.9884655814602,183.4523933020573 171.91744691508123,183.5735193517253 171.83064632284027,183.5735193517253 C171.74384573059922,183.5735193517253 171.67282706422023,183.69464540139356 171.67282706422023,183.84253713244902 C171.67282706422023,183.9905800820434 171.5307897314623,184.20969574492625 171.35718854698038,184.32961204628307 C171.1835873624984,184.44952834764004 171.04155002974042,184.66864401052285 171.04155002974042,184.81668696011724 C171.04155002974042,184.96457869117273 170.9705313633615,185.08570474084092 170.8837307711205,185.08570474084092 C170.79693017887956,185.08570474084092 170.72591151250055,185.2218014258613 170.72591151250055,185.388141818664 C170.72591151250055,185.55448221146668 170.65489284612156,185.690578896487 170.56809225388056,185.690578896487 C170.48129166163957,185.690578896487 170.4102729952606,185.8266755815075 170.4102729952606,185.99301597431014 C170.4102729952606,186.15935636711288 170.33925432888162,186.2954530521332 170.25245373664063,186.2954530521332 C170.16565314439973,186.2954530521332 170.09463447802068,186.46557390840883 170.09463447802068,186.67349939941212 C170.09463447802068,186.88142489041553 170.0236158116418,187.05154574669106 169.9368152194007,187.05154574669106 C169.85001462715974,187.05154574669106 169.77899596078083,187.18764243171142 169.77899596078083,187.35398282451413 C169.77899596078083,187.52032321731684 169.70797729440181,187.65641990233726 169.62117670216088,187.65641990233726 C169.53437610991986,187.65641990233726 169.46335744354093,187.8605649298678 169.46335744354093,188.1100755190719 C169.46335744354093,188.35958610827592 169.39233877716183,188.56373113580653 169.30553818492092,188.56373113580653 C169.2187375926799,188.56373113580653 169.147718926301,188.7678761633371 169.147718926301,189.0173867525412 C169.147718926301,189.2668973417452 169.076700259922,189.47104236927584 168.98989966768104,189.47104236927584 C168.90309907544005,189.47104236927584 168.83208040906104,189.6711044962558 168.83208040906104,189.9157760922147 C168.83208040906104,190.16044768817358 168.7686370670958,190.39816323134258 168.69098999185482,190.44413366717166 C168.55021521316576,190.527303863573 168.42648491440772,191.13489995291957 168.25730266916713,192.5710224169625 C168.208378698995,192.98687339896932 168.09253936316787,193.41603161240022 167.99989945835793,193.52475774187772 C167.74786210234194,193.82054120398865 167.75764689637634,202.41413955179308 168.01031552942695,202.65624043259055 C168.1151075171506,202.75664954242777 168.2008033745812,203.1953345238102 168.2008033745812,203.63129757149215 C168.2008033745812,204.06726061917416 168.27182204096016,204.46587268774502 168.35862263320115,204.51728699097487 C168.44542322544214,204.56870129420483 168.51644189182113,204.84089466424564 168.51644189182113,205.12216114662115 C168.51644189182113,205.40342762899664 168.58746055820006,205.67562099903745 168.67426115044108,205.72703530226735 C168.76106174268202,205.7784496054972 168.83208040906104,206.0506429755381 168.83208040906104,206.3319094579135 C168.83208040906104,206.613175940289 168.90309907544005,206.88536931032985 168.98989966768104,206.93678361355967 C169.076700259922,206.98819791678966 169.147718926301,207.19234294432027 169.147718926301,207.3904392302943 C169.147718926301,207.5885355162685 169.2187375926799,207.7926805437991 169.30553818492092,207.84409484702908 C169.39233877716183,207.895509150259 169.46335744354093,208.10358585980123 169.46335744354093,208.3066723575594 C169.46335744354093,208.50975885531759 169.53437610991986,208.67579681104246 169.62117670216088,208.67579681104246 C169.70797729440181,208.67579681104246 169.77899596078083,208.81189349606296 169.77899596078083,208.97823388886567 C169.77899596078083,209.1445742816683 169.85001462715974,209.28067096668872 169.9368152194007,209.28067096668872 C170.0236158116418,209.28067096668872 170.09463447802068,209.41676765170916 170.09463447802068,209.58310804451185 C170.09463447802068,209.74944843731453 170.16565314439973,209.88554512233495 170.25245373664063,209.88554512233495 C170.33925432888162,209.88554512233495 170.4102729952606,210.0896901498655 170.4102729952606,210.33920073906958 C170.4102729952606,210.5887113282736 170.48129166163957,210.79285635580422 170.56809225388056,210.79285635580422 C170.65489284612156,210.79285635580422 170.72591151250055,210.9289530408246 170.72591151250055,211.09529343362735 C170.72591151250055,211.26163382643003 170.79693017887956,211.39773051145045 170.8837307711205,211.39773051145045 C170.9705313633615,211.39773051145045 171.04155002974042,211.53382719647078 171.04155002974042,211.70016758927343 C171.04155002974042,211.86650798207623 171.11256869611938,212.00260466709665 171.19936928836046,212.00260466709665 C171.2861698806014,212.00260466709665 171.35718854698038,212.12373071676475 171.35718854698038,212.27162244782022 C171.35718854698038,212.41966539741466 171.49922587973836,212.63878106029748 171.67282706422023,212.75869736165436 C171.84642824870227,212.8786136630112 171.9884655814602,213.09772932589402 171.9884655814602,213.24577227548852 C171.9884655814602,213.39366400654396 172.0594842478392,213.51479005621215 172.14628484008017,213.51479005621215 C172.2330854323212,213.51479005621215 172.30410409870012,213.63591610588026 172.30410409870012,213.78380783693567 C172.30410409870012,213.93185078653016 172.44614143145813,214.150966449413 172.61974261594008,214.27088275076986 C172.79334380042198,214.39079905212674 172.93538113317993,214.56575890164737 172.93538113317993,214.65981683285034 C172.93538113317993,214.7538747640534 173.14843713231693,215.0445167958414 173.40883890903987,215.30567121254163 C173.66924068576276,215.56667441070294 173.88229668489967,215.81936058922415 173.88229668489967,215.86714564752015 C173.88229668489967,215.91493070581623 174.23739001679465,216.28526490761064 174.67139297799955,216.6903793733547 C175.1053959392044,217.09549383909862 175.46048927109928,217.50045708630384 175.46048927109928,217.5904321169562 C175.46048927109928,217.79109911809178 177.3511639893664,219.71475015158558 177.54859588189996,219.71475015158558 C177.62655859565825,219.71475015158558 178.03625739103572,220.05499186413655 178.45905518487854,220.4708428461434 C178.8818529787214,220.88669382815016 179.31033226587462,221.2269355407011 179.4113365913914,221.2269355407011 C179.5123409169081,221.2269355407011 179.79404829354473,221.4310805682317 180.0372477710781,221.68059115743577 C180.2804472486114,221.93010174663985 180.5605764326619,222.13424677417044 180.65952910781664,222.13424677417044 C180.7584817829713,222.13424677417044 180.99205428572887,222.2703434591907 181.17828101090043,222.43668385199348 C181.6793571570188,222.8838370715549 182.1023127701203,222.79703763021976 182.72017516761744,222.12003223151274 C183.02397724046088,221.78720022736843 183.6453116616476,221.14542874822786 184.10109368054208,220.693738972499 C184.97399199996903,219.82846649284716 185.14064913707168,219.41231307376253 184.6140062710569,219.41231307376253 C184.44040508657497,219.41231307376253 184.29836775381702,219.3442647312523 184.29836775381702,219.26109453485103 C184.29836775381702,219.17792433844963 184.15633042105898,219.1098759959395 183.98272923657706,219.1098759959395 C183.80912805209513,219.1098759959395 183.6670907193372,219.04182765342924 183.6670907193372,218.9586574570278 C183.6670907193372,218.8754872606265 183.57397735675139,218.80743891811633 183.46018967128643,218.80743891811633 C183.34624416656277,218.80743891811633 183.10067740015018,218.67134223309594 182.91429285572002,218.5050018402932 C182.72806613054846,218.33866144749055 182.53284370763555,218.20256476247016 182.48076335229098,218.20256476247016 C182.38433578527417,218.20256476247016 181.55262829234695,217.48412548410138 180.17249887571546,216.20874832692132 C179.75096363594153,215.81905815214634 179.40597073659825,215.4088022560793 179.40597073659825,215.29705175582356 C179.40597073659825,215.1851500370291 179.26393340384035,214.99567320777288 179.09033221935837,214.87575690641603 C178.91673103487636,214.75584060505918 178.7746937021184,214.53672494217633 178.7746937021184,214.38868199258198 C178.7746937021184,214.24079026152648 178.70367503573948,214.1196642118583 178.61687444349846,214.1196642118583 C178.53007385125747,214.1196642118583 178.45905518487854,213.98356752683796 178.45905518487854,213.81722713403522 C178.45905518487854,213.65088674123245 178.3880365184996,213.51479005621215 178.30123592625853,213.51479005621215 C178.21443533401762,213.51479005621215 178.14341666763863,213.3786933711918 178.14341666763863,213.21235297838905 C178.14341666763863,213.04601258558634 178.07239800125961,212.9099159005659 177.98559740901868,212.9099159005659 C177.89879681677766,212.9099159005659 177.82777815039867,212.77381921554553 177.82777815039867,212.60747882274288 C177.82777815039867,212.44113842994014 177.75675948401977,212.30504174491966 177.66995889177872,212.30504174491966 C177.58315829953779,212.30504174491966 177.51213963315877,212.10089671738913 177.51213963315877,211.85138612818508 C177.51213963315877,211.601875538981 177.44112096677978,211.39773051145045 177.35432037453882,211.39773051145045 C177.26231174676343,211.39773051145045 177.1965011159188,210.89371912125827 177.1965011159188,210.18798220015802 C177.1965011159188,209.48224527905782 177.26231174676343,208.97823388886567 177.35432037453882,208.97823388886567 C177.44112096677978,208.97823388886567 177.51213963315877,208.84213720384525 177.51213963315877,208.67579681104246 C177.51213963315877,208.5094564182399 177.58315829953779,208.37335973321936 177.66995889177872,208.37335973321936 C177.75675948401977,208.37335973321936 177.82777815039867,208.30243823846993 177.82777815039867,208.21579001567366 C177.82777815039867,208.1291417928773 177.96981548315665,207.91214318953922 178.14341666763863,207.73370531362357 C178.31701785212053,207.55511621916904 178.45905518487854,207.31982017262268 178.45905518487854,207.21064038752854 C178.45905518487854,207.10161182097332 178.5550092941195,207.01239288301542 178.6724268225327,207.01239288301542 C178.78968653168732,207.01239288301542 179.1086392533582,206.8082478554849 179.38119311299496,206.5587372662809 C179.653589153373,206.30922667707677 179.98374704240592,206.10508164954618 180.11473702706047,206.10508164954618 C180.24572701171508,206.10508164954618 180.35288628831808,206.03703330703595 180.35288628831808,205.95386311063473 C180.35288628831808,205.8706929142333 180.63696095383398,205.80264457172316 180.9841633227979,205.80264457172316 C181.33136569176176,205.80264457172316 181.61544035727778,205.7345962292129 181.61544035727778,205.65142603281151 C181.61544035727778,205.5682558364102 181.93076323600036,205.5002074939 182.31631568480898,205.5002074939 C182.70186813361752,205.5002074939 183.06106476623646,205.43215915138987 183.1147233141673,205.34898895498844 C183.16838186209816,205.26581875858705 183.52757849471712,205.1977704160769 183.9131309435257,205.1977704160769 C184.29868339233425,205.1977704160769 184.6140062710569,205.1297220735667 184.6140062710569,205.04655187716543 C184.6140062710569,204.9583914689799 185.14001786003715,204.8953333382538 185.8765603400166,204.8953333382538 C186.61310281999593,204.8953333382538 187.13911440897624,204.9583914689799 187.13911440897624,205.04655187716543 C187.13911440897624,205.1297220735667 187.24800969742404,205.1977704160769 187.38105133244068,205.1977704160769 C187.69526947635302,205.1977704160769 188.7173069951758,206.17706167406803 188.7173069951758,206.47813778504107 C188.7173069951758,206.6056150133435 188.78832566155484,206.70995580519244 188.8751262537958,206.70995580519244 C188.96192684603676,206.70995580519244 189.03294551241578,206.94404210342745 189.03294551241578,207.23029879758707 C189.03294551241578,207.5165554917466 189.10396417879474,207.7926805437991 189.19076477103573,207.84409484702908 C189.27756536327666,207.895509150259 189.34858402965568,208.4438275723522 189.34858402965568,209.06276505211721 C189.34858402965568,209.71209745820337 189.41534157605196,210.18798220015802 189.5064032882757,210.18798220015802 C189.5984119160511,210.18798220015802 189.66422254689562,210.69199359035017 189.66422254689562,211.39773051145045 C189.66422254689562,212.10346743255067 189.7300331777401,212.60747882274288 189.8220418055156,212.60747882274288 C189.914050433291,212.60747882274288 189.97986106413555,213.111490212935 189.97986106413555,213.81722713403522 C189.97986106413555,214.52296405513542 190.04567169498003,215.0269754453276 190.1376803227555,215.0269754453276 C190.22889985423788,215.0269754453276 190.29549958137548,215.50588455806047 190.29549958137548,216.16111448716418 C190.29549958137548,216.81634441626792 190.36209930851305,217.2952535290008 190.45331883999538,217.2952535290008 C190.54106634778813,217.2952535290008 190.61113809861538,217.69855337227796 190.61113809861538,218.20256476247016 C190.61113809861538,218.70657615266228 190.6812098494426,219.1098759959395 190.7689573572353,219.1098759959395 C190.8557579494763,219.1098759959395 190.9267766158553,219.2830212229931 190.9267766158553,219.49472717746931 C190.9267766158553,219.7064331319455 191.1059014743889,220.06376253939345 191.3249546053534,220.28862450675496 C191.54400773631792,220.51363769265538 191.8405501232648,220.8166796446341 191.98385001009174,220.96230309760597 C192.12730771617726,221.10777533203876 192.3386277034694,221.2269355407011 192.4536779430034,221.2269355407011 C192.5687281825373,221.2269355407011 192.66278846067482,221.29498388321127 192.66278846067482,221.37815407961267 C192.66278846067482,221.46192915016977 193.08053603824186,221.5293726185242 193.600392676136,221.5293726185242 C194.11614601330606,221.5293726185242 194.58187064549355,221.59742096103435 194.63552919342425,221.68059115743577 C194.69045029542409,221.76572719484295 195.45255949529988,221.83180969634736 196.38085237450247,221.83180969634736 C197.37416678825642,221.83180969634736 198.02864325375344,221.89184345629516 198.02864325375344,221.98302823525887 C198.02864325375344,222.07421301422255 198.6862761044228,222.13424677417044 199.685745469263,222.13424677417044 C200.68521483410316,222.13424677417044 201.34284768477266,222.19428053411832 201.34284768477266,222.28546531308194 C201.34284768477266,222.37922080720705 202.20454083683745,222.43668385199348 203.61244644298617,222.43668385199348 L205.88220302045852,222.43668385199348 L206.37554602290442,221.95308696455442 C206.9679995197637,221.372407775134 207.18010860334897,220.71369981963534 207.18121333815932,219.45011770849044 C207.18184461519382,218.92145769645558 207.25175854676237,218.5050018402932 207.33997951233093,218.5050018402932 C207.43198814010643,218.5050018402932 207.49779877095094,218.00099045010106 207.49779877095094,217.2952535290008 C207.49779877095094,216.5895166079006 207.5636094017954,216.08550521770846 207.65561802957092,216.08550521770846 C207.74683756105324,216.08550521770846 207.8134372881909,215.60659610497555 207.8134372881909,214.95136617587193 C207.8134372881909,214.29613624676801 207.8800370153285,213.81722713403522 207.97125654681082,213.81722713403522 C208.0648433671725,213.81722713403522 208.12907580543074,213.26270875184662 208.12907580543074,212.45626028383123 C208.12907580543074,211.64981181581592 208.19330824368913,211.09529343362735 208.28689506405078,211.09529343362735 C208.3789036918262,211.09529343362735 208.44471432267068,210.59128204343514 208.44471432267068,209.88554512233495 C208.44471432267068,209.17980820123475 208.51052495351524,208.67579681104246 208.6025335812907,208.67579681104246 C208.69375311277295,208.67579681104246 208.76035283991067,208.19688769830964 208.76035283991067,207.54165776920587 C208.76035283991067,206.8864278401022 208.82695256704824,206.40751872736936 208.91817209853065,206.40751872736936 C209.01018072630603,206.40751872736936 209.07599135715057,205.9035073371771 209.07599135715057,205.1977704160769 C209.07599135715057,204.49203349497674 209.14180198799514,203.98802210478453 209.23381061577052,203.98802210478453 C209.32061120801146,203.98802210478453 209.39162987439047,203.882925220241 209.39162987439047,203.75438946216613 C209.39162987439047,203.48733752244834 210.07956402271486,202.7782737934921 210.33854542611022,202.7782737934921 C210.87970766391808,202.7782737934921 211.28546097782993,203.52045438246998 211.28546097782993,204.51048215672395 C211.28546097782993,205.06953709507994 211.2168096003303,205.5002074939 211.12764171920995,205.5002074939 C211.03563309143462,205.5002074939 210.96982246059008,206.0042188840922 210.96982246059008,206.70995580519244 C210.96982246059008,207.4156927262926 210.90401182974549,207.9197041164848 210.8120032019701,207.9197041164848 C210.72078367048772,207.9197041164848 210.65418394335015,208.39861322921766 210.65418394335015,209.05384315832137 C210.65418394335015,209.70907308742514 210.58758421621243,210.18798220015802 210.49636468473022,210.18798220015802 C210.40435605695473,210.18798220015802 210.33854542611022,210.69199359035017 210.33854542611022,211.39773051145045 C210.33854542611022,212.10346743255067 210.27273479526568,212.60747882274288 210.1807261674903,212.60747882274288 C210.08871753971488,212.60747882274288 210.0229069088703,213.111490212935 210.0229069088703,213.81722713403522 C210.0229069088703,214.52296405513542 209.95709627802583,215.0269754453276 209.86508765025033,215.0269754453276 C209.77402593802663,215.0269754453276 209.7072683916304,215.5028601872822 209.7072683916304,216.15219259336837 C209.7072683916304,216.77113007313338 209.63624972525142,217.31944849522665 209.54944913301043,217.3708627984566 C209.4626485407695,217.42227710168655 209.39162987439047,217.97059552377974 209.39162987439047,218.5895330035448 C209.39162987439047,219.23886540963102 209.32487232799417,219.71475015158558 209.23381061577052,219.71475015158558 C208.82253362780688,219.71475015158558 209.05216064909897,222.68014569964114 209.47795700885558,222.86599328396346 C211.16472924498575,223.60242756846262 215.23094244332893,222.42473758741951 215.23094244332893,221.19986742223603 C215.23094244332893,221.08509255120214 215.37297977608688,220.8931962253233 215.5465809605688,220.7732799239665 C215.72018214505079,220.65336362260962 215.86221947780882,220.44921859507897 215.86221947780882,220.31962430723178 C215.86221947780882,220.1900300193846 216.00425681056672,219.98588499185402 216.17785799504864,219.8659686904971 C216.35145917953065,219.74605238914035 216.4934965122886,219.54190736160967 216.4934965122886,219.41231307376253 C216.4934965122886,219.28271878591536 216.63553384504658,219.07857375838472 216.80913502952856,218.9586574570278 C216.9827362140105,218.83874115567102 217.12477354676847,218.61962549278817 217.12477354676847,218.47158254319382 C217.12477354676847,218.32369081213832 217.19579221314746,218.20256476247016 217.28259280538848,218.20256476247016 C217.36939339762944,218.20256476247016 217.44041206400834,218.06646807744974 217.44041206400834,217.90012768464703 C217.44041206400834,217.73378729184432 217.5114307303874,217.5976906068239 217.59823132262832,217.5976906068239 C217.68503191486928,217.5976906068239 217.75605058124827,217.47656455715574 217.75605058124827,217.3286728261003 C217.75605058124827,217.18062987650586 217.89808791400623,216.96151421362305 218.0716890984882,216.84159791226617 C218.24529028297013,216.72168161090931 218.38732761572817,216.50256594802647 218.38732761572817,216.35452299843206 C218.38732761572817,216.20663126737657 218.44051270588304,216.08490034355282 218.5056920596931,216.08429546939715 C218.6658786071924,216.0827832840081 219.018604650208,215.3347051720126 219.018604650208,214.9968829560842 C219.018604650208,214.84702538402286 219.08962331658697,214.7245383675045 219.17642390882793,214.7245383675045 C219.26322450106892,214.7245383675045 219.33424316744788,214.5884416824842 219.33424316744788,214.4221012896814 C219.33424316744788,214.2557608968787 219.40526183382687,214.1196642118583 219.49206242606786,214.1196642118583 C219.57886301830888,214.1196642118583 219.6498816846878,213.98356752683796 219.6498816846878,213.81722713403522 C219.6498816846878,213.65088674123245 219.72090035106675,213.51479005621215 219.8077009433077,213.51479005621215 C219.89450153554873,213.51479005621215 219.96552020192772,213.3786933711918 219.96552020192772,213.21235297838905 C219.96552020192772,213.04601258558634 220.0365388683067,212.9099159005659 220.12333946054775,212.9099159005659 C220.21014005278872,212.9099159005659 220.28115871916768,212.70577087303533 220.28115871916768,212.45626028383123 C220.28115871916768,212.20674969462723 220.3521773855466,212.00260466709665 220.4389779777876,212.00260466709665 C220.52577857002862,212.00260466709665 220.59679723640755,211.79845963956603 220.59679723640755,211.54894905036198 C220.59679723640755,211.2994384611579 220.6678159027866,211.09529343362735 220.7546164950275,211.09529343362735 C220.84141708726847,211.09529343362735 220.91243575364754,210.89114840609673 220.91243575364754,210.64163781689268 C220.91243575364754,210.3921272276886 220.9834544200264,210.18798220015802 221.0702550122674,210.18798220015802 C221.15705560450834,210.18798220015802 221.22807427088736,209.98383717262743 221.22807427088736,209.73432658342347 C221.22807427088736,209.48481599421933 221.29909293726644,209.28067096668872 221.3858935295073,209.28067096668872 C221.47269412174833,209.28067096668872 221.54371278812724,209.04658466845368 221.54371278812724,208.76032797429406 C221.54371278812724,208.47407128013452 221.61473145450628,208.19794622808203 221.7015320467472,208.14653192485213 C221.7883326389882,208.0951176216221 221.85935130536717,207.82292425158138 221.85935130536717,207.54165776920587 C221.85935130536717,207.2603912868304 221.93036997174622,206.98819791678966 222.01717056398718,206.93678361355967 C222.1039711562281,206.88536931032985 222.17498982260722,206.54512759777884 222.17498982260722,206.180690919002 C222.17498982260722,205.81625424022513 222.24600848898612,205.47601252767413 222.33280908122703,205.42459822444422 C222.4196096734681,205.37318392121432 222.49062833984698,204.896845523643 222.49062833984698,204.36606845206342 C222.49062833984698,203.83529138048385 222.55059965812262,203.36545538008568 222.62398561338094,203.32205565941803 C223.10927983363732,203.03458921694715 222.82567862589715,192.7848454309835 222.31828970943403,192.2761462660851 C222.2395378993827,192.19705897023428 222.17498982260722,191.8739049525803 222.17498982260722,191.55785820625516 C222.17498982260722,191.24181145993003 222.1039711562281,190.98322775839128 222.01717056398718,190.98322775839128 C221.93036997174622,190.98322775839128 221.85935130536717,190.7110343883505 221.85935130536717,190.3783536027451 C221.85935130536717,190.0456728171397 221.7883326389882,189.7734794470989 221.7015320467472,189.7734794470989 C221.61473145450628,189.7734794470989 221.54371278812724,189.56933441956832 221.54371278812724,189.31982383036421 C221.54371278812724,189.0703132411602 221.47269412174833,188.8661682136296 221.3858935295073,188.8661682136296 C221.29909293726644,188.8661682136296 221.22807427088736,188.7001302579047 221.22807427088736,188.4970437601465 C221.22807427088736,188.2939572623883 221.15705560450834,188.08588055284602 221.0702550122674,188.0344662496161 C220.9834544200264,187.98305194638618 220.91243575364754,187.81535058673325 220.91243575364754,187.66171255119912 C220.91243575364754,187.35988034753166 220.277686695478,186.10068357401525 220.0838846458926,186.01826947030844 C220.01870529208256,185.99044525914863 219.96552020192772,185.8374120977702 219.96552020192772,185.67802775775743 C219.96552020192772,185.51849219920575 219.89450153554873,185.388141818664 219.8077009433077,185.388141818664 C219.72090035106675,185.388141818664 219.6498816846878,185.25204513364358 219.6498816846878,185.08570474084092 C219.6498816846878,184.9193643480382 219.57886301830888,184.78326766301774 219.49206242606786,184.78326766301774 C219.40526183382687,184.78326766301774 219.33424316744788,184.6621416133496 219.33424316744788,184.5142498822941 C219.33424316744788,184.36620693269975 219.19220583468996,184.14709126981685 219.018604650208,184.02717496846 C218.845003465726,183.90725866710315 218.70296613296804,183.6881430042203 218.70296613296804,183.54010005462592 C218.70296613296804,183.39220832357046 218.63194746658903,183.2710822739023 218.54514687434795,183.2710822739023 C218.4583462821072,183.2710822739023 218.38732761572817,183.1499562242342 218.38732761572817,183.00206449317864 C218.38732761572817,182.85402154358422 218.24529028297013,182.6349058807014 218.0716890984882,182.51498957934461 C217.89808791400623,182.3950732779877 217.75605058124827,182.20468913749804 217.75605058124827,182.09172888893116 C217.75605058124827,181.97876864036422 217.4719759157324,181.6249172593112 217.12477354676847,181.30524126805213 C216.7775711778045,180.98556527679315 216.4934965122886,180.64819671648146 216.4934965122886,180.55565097066759 C216.4934965122886,180.33381337408434 213.09091329644227,177.07112217852878 212.85970808256403,177.07112217852878 C212.76138668444383,177.07112217852878 212.40818718365236,176.79892880848803 212.0745572709298,176.46624802288252 C211.7409273582072,176.13356723727722 211.37163029303647,175.8613738672364 211.25373930684736,175.8613738672364 C211.1358483206583,175.8613738672364 210.9371538740557,175.72527718221605 210.8120032019701,175.55893678941322 C210.6868525298845,175.3925963966106 210.47379653074756,175.25649971159015 210.33854542611022,175.25649971159015 C210.20329432147295,175.25649971159015 209.99023832233595,175.12040302656982 209.86508765025033,174.95406263376714 C209.73993697816474,174.78772224096437 209.5112568724244,174.65162555594398 209.35675181823547,174.65162555594398 C209.20240458330508,174.65162555594398 209.07599135715057,174.58357721343378 209.07599135715057,174.50040701703244 C209.07599135715057,174.41723682063113 208.9339540243926,174.34918847812094 208.76035283991067,174.34918847812094 C208.58675165542869,174.34918847812094 208.44471432267068,174.28114013561066 208.44471432267068,174.19796993920932 C208.44471432267068,174.114799742808 208.30267698991275,174.04675140029778 208.12907580543074,174.04675140029778 C207.95547462094885,174.04675140029778 207.8134372881909,173.97870305778756 207.8134372881909,173.89553286138622 C207.8134372881909,173.81236266498493 207.6772392680018,173.74431432247474 207.5108977694164,173.74431432247474 C207.344556270831,173.74431432247474 207.1848431811076,173.6933536748615 207.15580443752148,173.63090041829105 C207.06837256824605,173.44233090026827 205.75326468616598,172.83700308900544 205.43115557932256,172.83700308900544 C205.26576099628892,172.83700308900544 205.13050989165163,172.76895474649515 205.13050989165163,172.68578455009387 C205.13050989165163,172.6026143536925 204.91745389251466,172.53456601118225 204.65705211579174,172.53456601118225 C204.39665033906877,172.53456601118225 204.1835943399319,172.46651766867217 204.1835943399319,172.38334747227074 C204.1835943399319,172.30017727586943 203.9705383407949,172.23212893335923 203.71013656407197,172.23212893335923 C203.44973478734903,172.23212893335923 203.23667878821203,172.16408059084904 203.23667878821203,172.0809103944476 C203.23667878821203,171.99774019804622 203.0278839090579,171.92969185553605 202.7725323486107,171.92969185553605 C202.51718078816367,171.92969185553605 202.2645121551131,171.86164351302597 202.21085360718237,171.77847331662463 C202.15719505925153,171.69530312022323 201.79799842663257,171.62725477771298 201.41244597782398,171.62725477771298 C201.0268935290154,171.62725477771298 200.71157065029274,171.5592064352028 200.71157065029274,171.47603623880147 C200.71157065029274,171.3922611682445 200.2938230727257,171.3248176998899 199.77396643483155,171.3248176998899 C199.25821309766152,171.3248176998899 198.79248846547404,171.25676935737974 198.7388299175432,171.17359916097837 C198.60689301733692,170.96900047783103 191.92671943847137,170.96900047783103 191.79478253826503,171.17359916097837 M204.49923285717176,179.33940026220202 C204.49923285717176,179.50574065500473 204.57025152355072,179.64183734002512 204.65705211579174,179.64183734002512 C204.74385270803273,179.64183734002512 204.8148713744117,179.77793402504548 204.8148713744117,179.94427441784825 C204.8148713744117,180.110614810651 204.88589004079066,180.24671149567132 204.97269063303165,180.24671149567132 C205.05949122527264,180.24671149567132 205.13050989165163,180.3828081806917 205.13050989165163,180.54914857349434 C205.13050989165163,180.71548896629713 205.20152855803053,180.85158565131746 205.28832915027152,180.85158565131746 C205.37512974251248,180.85158565131746 205.44614840889147,181.05573067884808 205.44614840889147,181.30524126805213 C205.44614840889147,181.55475185725618 205.51716707527044,181.7588968847868 205.60396766751148,181.7588968847868 C205.69076825975242,181.7588968847868 205.76178692613135,181.9630419123174 205.76178692613135,182.21255250152143 C205.76178692613135,182.46206309072548 205.83280559251043,182.66620811825607 205.91960618475133,182.66620811825607 C206.00640677699235,182.66620811825607 206.07742544337134,182.93840148829693 206.07742544337134,183.2710822739023 C206.07742544337134,183.60376305950774 206.1484441097503,183.87595642954855 206.2352447019913,183.87595642954855 C206.33403955788742,183.87595642954855 206.3930639606112,184.80852115901595 206.3930639606112,186.37106232158908 C206.3930639606112,187.93360348416215 206.33403955788742,188.8661682136296 206.2352447019913,188.8661682136296 C206.1484441097503,188.8661682136296 206.07742544337134,189.2064099261806 206.07742544337134,189.62226090818737 C206.07742544337134,190.03811189019407 206.00640677699235,190.3783536027451 205.91960618475133,190.3783536027451 C205.83280559251043,190.3783536027451 205.76178692613135,190.58249863027572 205.76178692613135,190.83200921947977 C205.76178692613135,191.08151980868382 205.69076825975242,191.2856648362144 205.60396766751148,191.2856648362144 C205.51716707527044,191.2856648362144 205.44614840889147,191.42176152123474 205.44614840889147,191.5881019140375 C205.44614840889147,191.75444230684016 205.37512974251248,191.89053899186058 205.28832915027152,191.89053899186058 C205.20152855803053,191.89053899186058 205.13050989165163,192.0946840193911 205.13050989165163,192.34419460859516 C205.13050989165163,192.59370519779927 205.05949122527264,192.79785022532985 204.97269063303165,192.79785022532985 C204.88589004079066,192.79785022532985 204.8148713744117,192.91897627499807 204.8148713744117,193.06686800605345 C204.8148713744117,193.2149109556479 204.67283404165377,193.43402661853082 204.49923285717176,193.55394291988765 C204.32563167268987,193.67385922124456 204.1835943399319,193.85895071287223 204.1835943399319,193.965408564266 C204.1835943399319,194.07171519712077 204.11257567355287,194.15881707553376 204.02577508131185,194.15881707553376 C203.9389744890709,194.15881707553376 203.86795582269193,194.266182238161 203.86795582269193,194.39743992993627 C203.86795582269193,194.52884884025036 203.583881157176,194.89767085665562 203.23667878821203,195.21734684791468 C202.88947641924813,195.53702283917366 202.60540175373222,195.87363530679082 202.60540175373222,195.965576178449 C202.60540175373222,196.16291637172856 201.25604709253153,197.48562493158786 201.0548275377911,197.48562493158786 C200.97860083587773,197.48562493158786 200.69026505037908,197.6924918928189 200.41423916705276,197.94517807134008 C199.9571945940893,198.36375098704724 199.89012140917586,198.3835606156447 199.66349295379757,198.16625957522885 C199.4367066791607,197.94910975335185 199.44428200357441,197.90313931752274 199.7474527993834,197.65120923169607 C199.93052313938256,197.49908338155103 200.0802936158129,197.29070423493096 200.0802936158129,197.18832928408776 C200.0802936158129,197.08595433324464 200.29334961494988,196.8113414665813 200.55375139167276,196.5783136981186 C200.8141531683957,196.34528592965594 201.02720916753262,196.06069263942436 201.02720916753262,195.94622020546836 C201.02720916753262,195.8315965529734 201.16924650029063,195.6397002270946 201.34284768477266,195.51978392573776 C201.51644886925453,195.39986762438093 201.65848620201245,195.18075196149812 201.65848620201245,195.03270901190368 C201.65848620201245,194.88481728084813 201.72950486839147,194.76369123118002 201.81630546063244,194.76369123118002 C201.90310605287343,194.76369123118002 201.97412471925244,194.62759454615966 201.97412471925244,194.46125415335695 C201.97412471925244,194.2949137605542 202.0451433856314,194.15881707553376 202.13194397787234,194.15881707553376 C202.21874457011333,194.15881707553376 202.2897632364923,194.02272039051343 202.2897632364923,193.85637999771072 C202.2897632364923,193.69003960490807 202.36078190287128,193.55394291988765 202.44758249511227,193.55394291988765 C202.53438308735323,193.55394291988765 202.60540175373222,193.4518704061223 202.60540175373222,193.3271151115203 C202.60540175373222,193.20235981691826 202.67642042011124,193.10028730315298 202.76322101235218,193.10028730315298 C202.85002160459322,193.10028730315298 202.92104027097216,192.96419061813262 202.92104027097216,192.79785022532985 C202.92104027097216,192.63150983252723 202.99205893735115,192.4954131475068 203.07885952959217,192.4954131475068 C203.16566012183307,192.4954131475068 203.23667878821203,192.36339936303693 203.23667878821203,192.20189796347952 C203.23667878821203,192.040396563922 203.30769745459108,191.86634402563473 203.39449804683204,191.8149297224048 C203.481298639073,191.7635154191749 203.55231730545205,191.55543870963265 203.55231730545205,191.35235221187438 C203.55231730545205,191.14926571411624 203.62333597183104,190.98322775839128 203.71013656407197,190.98322775839128 C203.79693715631294,190.98322775839128 203.86795582269193,190.7110343883505 203.86795582269193,190.3783536027451 C203.86795582269193,190.0456728171397 203.9389744890709,189.7734794470989 204.02577508131185,189.7734794470989 C204.11257567355287,189.7734794470989 204.1835943399319,189.5012860770581 204.1835943399319,189.16860529145276 C204.1835943399319,188.83592450584732 204.25461300631073,188.56373113580653 204.3414135985518,188.56373113580653 C204.42916110634448,188.56373113580653 204.49923285717176,188.16043129252935 204.49923285717176,187.65641990233726 C204.49923285717176,187.15240851214494 204.56930460799904,186.74910866886793 204.65705211579174,186.74910866886793 C204.75584697168784,186.74910866886793 204.8148713744117,185.81654393940036 204.8148713744117,184.25400277682735 C204.8148713744117,182.69146161425434 204.75584697168784,181.7588968847868 204.65705211579174,181.7588968847868 C204.56930460799904,181.7588968847868 204.49923285717176,181.35559704150967 204.49923285717176,180.85158565131746 C204.49923285717176,180.34757426112523 204.42916110634448,179.94427441784825 204.3414135985518,179.94427441784825 C204.25461300631073,179.94427441784825 204.1835943399319,179.7401293903176 204.1835943399319,179.49061880111353 C204.1835943399319,179.24110821190948 204.25461300631073,179.03696318437883 204.3414135985518,179.03696318437883 C204.42821419079277,179.03696318437883 204.49923285717176,179.1730598693993 204.49923285717176,179.33940026220202 M191.80598770562705,190.59444489484977 C192.05439521869494,190.83231165655758 192.11641818733253,191.5881019140375 191.88758026233359,191.5881019140375 C191.80835499450635,191.5881019140375 191.69567204385172,191.8602952840783 191.63696327964507,192.19297606968368 C191.52191304011112,192.84503040947027 191.24225731383663,192.97054179676684 190.81519840001093,192.56134443047222 C190.6308655059428,192.38472117702355 190.61382102601192,192.2811364778691 190.74749393806297,192.15305437541105 C190.84613097470054,192.0585427885913 190.9267766158553,191.8610513767728 190.9267766158553,191.71421817548972 C190.9267766158553,191.44973695093344 191.4022860420772,190.3783536027451 191.5197035704905,190.3783536027451 C191.55316125331794,190.3783536027451 191.6820995876104,190.47558712326526 191.80598770562705,190.59444489484977 " stroke="url(#svg_17)" fill="none" fill-rule="evenodd" fill-opacity="1" stroke-width="1.375" opacity="1" stroke-opacity="1"/></g></g></svg>