<svg xmlns="http://www.w3.org/2000/svg" xmlns:xlink="http://www.w3.org/1999/xlink" version="1.1" width="400" height="402" style="display: block;"><rect id="backgroundrect" width="100%" height="100%" x="0" y="0" fill="none" stroke="none"/><defs><linearGradient id="svg_1"><stop stop-color="#bb2546" stop-opacity="1" offset="0"/><stop stop-color="#44dab9" stop-opacity="1" offset="1"/></linearGradient><linearGradient id="svg_2" x1="0" y1="0" x2="1" y2="0.60546875" spreadMethod="pad"><stop stop-color="#bb2546" stop-opacity="1" offset="0"/><stop stop-color="#44dab9" stop-opacity="1" offset="1"/></linearGradient><linearGradient id="svg_3" x2="0.98828125" y2="0.734375"><stop stop-color="#4a90d6" stop-opacity="1" offset="0"/><stop stop-color="#b56f29" stop-opacity="1" offset="1"/></linearGradient><linearGradient id="svg_4" x2="1" y2="1"><stop stop-color="#1fceb2" stop-opacity="1" offset="0"/><stop stop-color="#e0314d" stop-opacity="1" offset="1"/></linearGradient><linearGradient id="svg_5" x2="1" y2="1" x1="0.0" y1="0.0" spreadMethod="repeat"><stop stop-color="#1fceb2" stop-opacity="1" offset="0"/><stop stop-color="#e0314d" stop-opacity="1" offset="1"/></linearGradient><linearGradient id="svg_6" x2="1" y2="1"><stop stop-color="#f73347" stop-opacity="1" offset="0"/><stop stop-color="#08ccb8" stop-opacity="1" offset="1"/></linearGradient><linearGradient id="svg_7" x1="1" y1="1" x2="0" y2="0"><stop stop-color="#b3e449" stop-opacity="1" offset="0"/><stop stop-color="#4c1bb6" stop-opacity="1" offset="1"/></linearGradient><linearGradient id="svg_8" x2="1" y2="1" x1="0" y1="0"><stop stop-color="#9b59b6" stop-opacity="1" offset="0"/><stop stop-color="#64a649" stop-opacity="1" offset="1"/></linearGradient><linearGradient id="svg_9" x2="1" y2="1"><stop stop-color="#55276b" stop-opacity="1" offset="0"/><stop stop-color="#aad894" stop-opacity="1" offset="1"/></linearGradient><linearGradient id="svg_10" x2="1" y2="1"><stop stop-color="#eb1a1a" stop-opacity="1" offset="0"/><stop stop-color="#14e5e5" stop-opacity="1" offset="1"/></linearGradient><linearGradient id="svg_11" x2="1" y2="1"><stop stop-color="#9eea1c" stop-opacity="1" offset="0"/><stop stop-color="#6115e3" stop-opacity="1" offset="1"/></linearGradient><linearGradient id="svg_12" x2="1" y2="1" x1="0.48046875" y1="0.54296875"><stop stop-color="#9eea1c" stop-opacity="1" offset="0"/><stop stop-color="#6115e3" stop-opacity="1" offset="1"/></linearGradient><linearGradient id="svg_13" x2="1" y2="1" x1="0.10546875" y1="0.12890625"><stop stop-color="#9eea1c" stop-opacity="1" offset="0"/><stop stop-color="#6115e3" stop-opacity="1" offset="1"/><stop stop-color="#6115e3" stop-opacity="1" offset="1"/></linearGradient><linearGradient id="svg_14" x2="1" y2="1" x1="0.13671875" y1="0.171875"><stop stop-color="#f0c13a" stop-opacity="1" offset="0"/><stop stop-color="#0f3ec5" stop-opacity="1" offset="1"/></linearGradient><linearGradient id="svg_15" x2="1" y2="1" x1="0.18359375" y1="0.171875"><stop stop-color="#f73347" stop-opacity="1" offset="0"/><stop stop-color="#08ccb8" stop-opacity="1" offset="1"/></linearGradient><linearGradient id="svg_16" x2="1" y2="1" x1="0.16796875" y1="0.171875"><stop stop-color="#9b59b6" stop-opacity="1" offset="0"/><stop stop-color="#64a649" stop-opacity="1" offset="1"/></linearGradient></defs><g class="currentLayer"><title>Layer 1</title><g id="svgg" class="selected" fill="none" stroke-opacity="1" stroke="url(#svg_16)" stroke-width="1.75" opacity="1"><path id="path0" d="M195.76609516644996,171.20247666505352 C195.70357498967363,171.29738532066455 195.20231027822567,171.37503785707355 194.6519488397211,171.37503785707355 C194.10158740121645,171.37503785707355 193.65144212842688,171.45269039348253 193.65144212842688,171.5475990490936 C193.65144212842688,171.6425077047046 193.23770566446578,171.72016024111358 192.73202776406896,171.72016024111358 C192.2263498636721,171.72016024111358 191.8126133997111,171.79781277752264 191.8126133997111,171.89272143313372 C191.8126133997111,171.98763008874474 191.52796271250594,172.06528262515363 191.17987243416002,172.06528262515363 C190.83178215581415,172.06528262515363 190.49601202995063,172.14293516156263 190.4334918531743,172.23784381717368 C190.37097167639791,172.33275247278476 190.07657519693055,172.41040500919377 189.77905270862433,172.41040500919377 C189.48153022031815,172.41040500919377 189.23825317950903,172.4880575456028 189.23825317950903,172.58296620121376 C189.23825317950903,172.67787485682484 189.03634978509604,172.7555273932338 188.78939508682953,172.7555273932338 C188.54244038856302,172.7555273932338 188.2894175554917,172.83317992964282 188.22689737871536,172.92808858525387 C188.164377201939,173.02299724086484 187.95272801526392,173.10064977727393 187.75634110703703,173.10064977727393 C187.5599541988102,173.10064977727393 187.39942445079328,173.17830231368288 187.39942445079328,173.27321096929393 C187.39942445079328,173.36811962490495 187.2339298652089,173.44577216131395 187.03165870505015,173.44577216131395 C186.8293875448914,173.44577216131395 186.663892959307,173.52342469772293 186.663892959307,173.61833335333398 C186.663892959307,173.71324200894506 186.45702472732646,173.79089454535406 186.20418577712803,173.79089454535406 C185.9513468269297,173.79089454535406 185.74447859494913,173.86854708176298 185.74447859494913,173.9634557373741 C185.74447859494913,174.05836439298508 185.5971884137791,174.13601692939415 185.41735096411063,174.13601692939415 C185.23732963156937,174.13601692939415 184.97088334877836,174.2913220022121 184.8250642305913,174.48113931343417 C184.6792451124041,174.6709566246562 184.41279882961317,174.82626169747428 184.23277749707188,174.82626169747428 C184.0529400474035,174.82626169747428 183.90564986623346,174.90391423388328 183.90564986623346,174.9988228894943 C183.90564986623346,175.0937315451053 183.74015528064893,175.1713840815143 183.53788412049022,175.1713840815143 C183.33561296033153,175.1713840815143 183.17011837474712,175.2490366179233 183.17011837474712,175.34394527353433 C183.17011837474712,175.43885392914538 183.02282819357694,175.51650646555441 182.84299074390853,175.51650646555441 C182.66296941136724,175.51650646555441 182.39652312857635,175.67181153837242 182.25070401038923,175.8616288495944 C182.10488489220197,176.05144616081645 181.87153752652804,176.20675123363446 181.73215430889135,176.20675123363446 C181.59295497412765,176.20675123363446 181.24688740738324,176.43970884286153 180.9635239002882,176.72443480969463 C180.68016039319306,177.00916077652766 180.35266499660872,177.24211838575468 180.23589937233535,177.24211838575468 C180.11931763093483,177.24211838575468 179.53640892393196,177.7080336042088 178.94081229870088,178.27748553787495 C178.34521567346988,178.84693747154105 177.78676338855888,179.31285268999514 177.69997067256347,179.31285268999514 C177.50652589030258,179.31285268999514 176.36645207849887,180.3991253937612 176.36645207849887,180.58342074683867 C176.36645207849887,180.65624156987107 175.95271561453782,181.0938567528339 175.44703771414098,181.5561481862556 C174.9413598137441,182.0184396196773 174.52762334978306,182.4869432560116 174.52762334978306,182.59738241890446 C174.52762334978306,182.7078215817973 174.27938147140648,183.01584330955308 173.97597473116832,183.28176010645595 C173.67256799093022,183.5476769033588 173.42432611255364,183.87243706674047 173.42432611255364,184.00306588909967 C173.42432611255364,184.1338672726509 173.25883152696923,184.35284742532428 173.05656036681043,184.48968845059613 C172.85428920665174,184.62652947586807 172.6887946210673,184.87657064310517 172.6887946210673,185.04550805009268 C172.6887946210673,185.21427289588837 172.60604732827508,185.3524944106963 172.50491174819575,185.3524944106963 C172.4037761681163,185.3524944106963 172.32102887532412,185.49071592550442 172.32102887532412,185.65948077129997 C172.32102887532412,185.8284181782876 172.15553428973973,186.0784593455246 171.95326312958102,186.21530037079646 C171.7509919694223,186.35214139606845 171.58549738383783,186.60218256330546 171.58549738383783,186.77111997029306 C171.58549738383783,186.93988481608866 171.50275009104567,187.07810633089676 171.40161451096628,187.07810633089676 C171.30047893088695,187.07810633089676 171.2177316380947,187.23341140371477 171.2177316380947,187.42322871493678 C171.2177316380947,187.6130460261588 171.13498434530248,187.76835109897678 171.03384876522313,187.76835109897678 C170.93271318514374,187.76835109897678 170.84996589235158,187.92365617179487 170.84996589235158,188.11347348301686 C170.84996589235158,188.30329079423893 170.76721859955933,188.4585958670569 170.66608301947994,188.4585958670569 C170.56494743940064,188.4585958670569 170.4822001466084,188.6527272080796 170.4822001466084,188.88999884710705 C170.4822001466084,189.12727048613462 170.39945285381629,189.3214018271572 170.2983172737368,189.3214018271572 C170.19718169365746,189.3214018271572 170.11443440086532,189.4767068999752 170.11443440086532,189.66652421119727 C170.11443440086532,189.85634152241929 170.03168710807307,190.01164659523735 169.9305515279937,190.01164659523735 C169.8294159479143,190.01164659523735 169.74666865512216,190.24460420446434 169.74666865512216,190.52933017129743 C169.74666865512216,190.81405613813044 169.66392136232983,191.04701374735754 169.56278578225056,191.04701374735754 C169.46165020217114,191.04701374735754 169.378902909379,191.27997135658455 169.378902909379,191.56469732341768 C169.378902909379,191.8494232902506 169.2961556165868,192.08238089947773 169.19502003650743,192.08238089947773 C169.09388445642807,192.08238089947773 169.01113716363582,192.31067935652024 169.01113716363582,192.58988336520866 C169.01113716363582,192.86908737389706 168.93721624874144,193.14035356775258 168.84674587528863,193.19281217012667 C168.68272235268716,193.28772082573767 168.53855818035584,193.98107169527412 168.3414357406375,195.6198853358884 C168.28443205004737,196.09442861394353 168.14946202135957,196.5841572768963 168.04152277498395,196.7082287739588 C167.74786182700808,197.04575846554994 167.7592625651261,206.8522384468565 168.05365904459356,207.12850891528066 C168.17575727218028,207.2430895467819 168.27560567214954,207.74368956483207 168.27560567214954,208.24118348142576 C168.27560567214954,208.73867739801952 168.35835296494173,209.19354870018438 168.45948854502106,209.25221950547106 C168.56062412510047,209.3108903107579 168.64337141789267,209.62150045639402 168.64337141789267,209.9424642735513 C168.64337141789267,210.26342809070857 168.7261187106848,210.57403823634468 168.82725429076427,210.63270904163144 C168.92838987084357,210.69137984691818 169.01113716363582,211.00198999255437 169.01113716363582,211.32295380971155 C169.01113716363582,211.64391762686884 169.09388445642807,211.95452777250497 169.19502003650743,212.01319857779168 C169.2961556165868,212.07186938307854 169.378902909379,212.3048269923056 169.378902909379,212.53088215385176 C169.378902909379,212.7569373153981 169.46165020217114,212.9898949246251 169.56278578225056,213.04856572991196 C169.66392136232983,213.10723653519878 169.74666865512216,213.3446807354183 169.74666865512216,213.57643041630115 C169.74666865512216,213.80818009718405 169.8294159479143,213.99765228602203 169.9305515279937,213.99765228602203 C170.03168710807307,213.99765228602203 170.11443440086532,214.15295735884018 170.11443440086532,214.34277467006223 C170.11443440086532,214.5325919812842 170.19718169365746,214.68789705410225 170.2983172737368,214.68789705410225 C170.39945285381629,214.68789705410225 170.4822001466084,214.84320212692032 170.4822001466084,215.03301943814233 C170.4822001466084,215.22283674936435 170.56494743940064,215.3781418221824 170.66608301947994,215.3781418221824 C170.76721859955933,215.3781418221824 170.84996589235158,215.61109943140943 170.84996589235158,215.8958253982425 C170.84996589235158,216.1805513650755 170.93271318514374,216.4135089743026 171.03384876522313,216.4135089743026 C171.13498434530248,216.4135089743026 171.2177316380947,216.5688140471206 171.2177316380947,216.75863135834268 C171.2177316380947,216.94844866956473 171.30047893088695,217.10375374238274 171.40161451096628,217.10375374238274 C171.50275009104567,217.10375374238274 171.58549738383783,217.25905881520072 171.58549738383783,217.44887612642273 C171.58549738383783,217.63869343764483 171.66824467663,217.7939985104629 171.76938025670947,217.7939985104629 C171.8705158367888,217.7939985104629 171.95326312958102,217.93222002527094 171.95326312958102,218.10098487106646 C171.95326312958102,218.26992227805414 172.11875771516543,218.51996344529113 172.32102887532412,218.65680447056303 C172.5233000354829,218.7936454958349 172.6887946210673,219.04368666307192 172.6887946210673,219.21262407005963 C172.6887946210673,219.38138891585518 172.77154191385955,219.51961043066325 172.87267749393888,219.51961043066325 C172.9738130740183,219.51961043066325 173.05656036681043,219.65783194547126 173.05656036681043,219.82659679126678 C173.05656036681043,219.9955341982545 173.2220549523949,220.2455753654915 173.42432611255364,220.38241639076344 C173.62659727271233,220.51925741603532 173.79209185829671,220.71891071520247 173.79209185829671,220.8262437766389 C173.79209185829671,220.93357683807545 174.0403337366734,221.26523944913794 174.3437404769115,221.56325262775653 C174.64714721714958,221.8610932451831 174.89538909552618,222.1494429970486 174.89538909552618,222.20397233372688 C174.89538909552618,222.25850167040522 175.30912555948728,222.68110402966232 175.8148034598841,223.143395463084 C176.32048136028092,223.60568689650557 176.73421782424197,224.0678057687353 176.73421782424197,224.17047967798723 C176.73421782424197,224.39946837979778 178.9371346412434,226.5946193034846 179.16717211520574,226.5946193034846 C179.25801025440433,226.5946193034846 179.735370192379,226.98288198552967 180.2279924088019,227.45742526358487 C180.7206146252249,227.93196854163995 181.21985662507117,228.32023122368497 181.337541663709,228.32023122368497 C181.45522670234672,228.32023122368497 181.78345763042253,228.553188832912 182.06682113751762,228.8379147997451 C182.35018464461268,229.12264076657823 182.67657674395977,229.35559837580524 182.79187130525025,229.35559837580524 C182.9071658665407,229.35559837580524 183.17931251839067,229.51090344862317 183.39629430837914,229.70072075984524 C183.9801224297464,230.21098420464844 184.4729285290422,230.11193408042905 185.19282997633442,229.33937762375533 C185.5468045066122,228.95957044011925 186.27075137710756,228.22722074118627 186.80180511396068,227.71178046062238 C187.81886128381336,226.72438531988377 188.0130415975657,226.2494969194446 187.39942445079328,226.2494969194446 C187.19715329063456,226.2494969194446 187.03165870505015,226.17184438303556 187.03165870505015,226.0769357274246 C187.03165870505015,225.98202707181352 186.8661641194657,225.90437453540457 186.663892959307,225.90437453540457 C186.46162179914828,225.90437453540457 186.29612721356386,225.8267219989955 186.29612721356386,225.73181334338443 C186.29612721356386,225.6369046877734 186.18763631856964,225.55925215136446 186.05505676722922,225.55925215136446 C185.9222933330159,225.55925215136446 185.63617158282784,225.40394707854642 185.4190059099665,225.21412976732435 C185.20202411997803,225.02431245610236 184.9745610062359,224.86900738328433 184.91387965818822,224.86900738328433 C184.8015272228637,224.86900738328433 183.8324644828305,224.04916915999715 182.22440875956863,222.5937880665001 C181.7332576061286,222.14909787466456 181.3312896460313,221.6809393607142 181.3312896460313,221.5534166398113 C181.3312896460313,221.42572135771655 181.16579506044692,221.2095021841154 180.9635239002882,221.07266115884352 C180.7612527401294,220.9358201335716 180.595758154545,220.68577896633462 180.595758154545,220.51684155934703 C180.595758154545,220.34807671355145 180.51301086175283,220.20985519874333 180.41187528167345,220.20985519874333 C180.31073970159406,220.20985519874333 180.2279924088019,220.05455012592537 180.2279924088019,219.86473281470333 C180.2279924088019,219.6749155034812 180.14524511600973,219.51961043066325 180.04410953593026,219.51961043066325 C179.94297395585096,219.51961043066325 179.86022666305877,219.3643053578453 179.86022666305877,219.1744880466232 C179.86022666305877,218.98467073540115 179.7774793702665,218.82936566258306 179.67634379018716,218.82936566258306 C179.5752082101078,218.82936566258306 179.49246091731555,218.67406058976508 179.49246091731555,218.4842432785431 C179.49246091731555,218.29442596732102 179.40971362452345,218.1391208945029 179.308578044444,218.1391208945029 C179.20744246436468,218.1391208945029 179.12469517157237,217.9061632852759 179.12469517157237,217.62143731844284 C179.12469517157237,217.3367113516098 179.0419478787802,217.10375374238274 178.94081229870088,217.10375374238274 C178.83360858381675,217.10375374238274 178.75692942582924,216.52860728938003 178.75692942582924,215.72326420622244 C178.75692942582924,214.91792112306496 178.83360858381675,214.34277467006223 178.94081229870088,214.34277467006223 C179.0419478787802,214.34277467006223 179.12469517157237,214.18746959724416 179.12469517157237,213.99765228602203 C179.12469517157237,213.80783497480013 179.20744246436468,213.65252990198195 179.308578044444,213.65252990198195 C179.40971362452345,213.65252990198195 179.49246091731555,213.57159870292463 179.49246091731555,213.4727211398972 C179.49246091731555,213.3738435768697 179.65795550290002,213.12621826632096 179.86022666305877,212.92259605973726 C180.06249782321746,212.71880129196163 180.2279924088019,212.45029607717848 180.2279924088019,212.32570689654 C180.2279924088019,212.20129027709353 180.3397931955078,212.09947917380165 180.47660205292428,212.09947917380165 C180.61322702746781,212.09947917380165 180.9848543135412,211.86652156457467 181.30242003499055,211.5817955977417 C181.61980187356684,211.29706963090854 182.00448484361416,211.0641120216815 182.15710762809752,211.0641120216815 C182.30973041258102,211.0641120216815 182.4345868832608,210.98645948527246 182.4345868832608,210.89155082966155 C182.4345868832608,210.79664217405048 182.76557605442963,210.71898963764153 183.17011837474712,210.71898963764153 C183.5746606950645,210.71898963764153 183.90564986623346,210.64133710123244 183.90564986623346,210.5464284456214 C183.90564986623346,210.45151979001042 184.27304784623078,210.37386725360136 184.72227370465612,210.37386725360136 C185.17149956308134,210.37386725360136 185.59001698173694,210.2962147171924 185.65253715851333,210.20130606158133 C185.7150573352897,210.10639740597026 186.1335747539454,210.0287448695613 186.58280061237062,210.0287448695613 C187.0320264707959,210.0287448695613 187.39942445079328,209.95109233315233 187.39942445079328,209.85618367754137 C187.39942445079328,209.7555805025936 188.0123060660742,209.68362248552123 188.8704874337659,209.68362248552123 C189.72866880145756,209.68362248552123 190.3415504167385,209.7555805025936 190.3415504167385,209.85618367754137 C190.3415504167385,209.95109233315233 190.46842959901988,210.0287448695613 190.62344286085064,210.0287448695613 C190.98955366073793,210.0287448695613 192.1803791454542,211.14625114908299 192.1803791454542,211.48982048239503 C192.1803791454542,211.6352895672679 192.26312643824647,211.75435678976172 192.36426201832583,211.75435678976172 C192.46539759840513,211.75435678976172 192.5481448911974,212.02148151500865 192.5481448911974,212.34813985150262 C192.5481448911974,212.67479818799654 192.6308921839896,212.9898949246251 192.73202776406896,213.04856572991196 C192.83316334414832,213.10723653519878 192.91591063694057,213.7329434174634 192.91591063694057,214.4392363764014 C192.91591063694057,215.1802141349354 192.99369309216524,215.72326420622244 193.09979350981214,215.72326420622244 C193.20699722469627,215.72326420622244 193.2836763826837,216.2984106592252 193.2836763826837,217.10375374238274 C193.2836763826837,217.9090968255403 193.3603555406711,218.4842432785431 193.4675592555553,218.4842432785431 C193.57476297043942,218.4842432785431 193.65144212842688,219.0593897315458 193.65144212842688,219.86473281470333 C193.65144212842688,220.6700758978608 193.72812128641434,221.24522235086357 193.83532500129843,221.24522235086357 C193.94160930181823,221.24522235086357 194.01920787417004,221.791723645991 194.01920787417004,222.5394312910138 C194.01920787417004,223.28713893603663 194.0968064465218,223.83364023116408 194.20309074704156,223.83364023116408 C194.3053296243582,223.83364023116408 194.38697361991316,224.29386093028154 194.38697361991316,224.86900738328433 C194.38697361991316,225.44415383628706 194.46861761546813,225.90437453540457 194.5708564927847,225.90437453540457 C194.67199207286413,225.90437453540457 194.75473936565635,226.1019571002674 194.75473936565635,226.3435427690955 C194.75473936565635,226.58512843792354 194.96344642636552,226.99289053466688 195.2186758539113,227.2494890272007 C195.47390528145704,227.50626008092652 195.81942119958265,227.85207270973464 195.98638684815012,228.01824913765003 C196.15353637959032,228.18425300437318 196.39975554636538,228.32023122368497 196.53380616068884,228.32023122368497 C196.66785677501215,228.32023122368497 196.77745096724362,228.397883760094 196.77745096724362,228.49279241570505 C196.77745096724362,228.58839131608426 197.26418893173468,228.66535360772505 197.86989911497366,228.66535360772505 C198.47082834351798,228.66535360772505 199.01346670136198,228.743006144134 199.07598687813825,228.8379147997451 C199.13997811789764,228.93506675085234 200.0279485109945,229.0104759917652 201.1095475692251,229.0104759917652 C202.2669063710787,229.0104759917652 203.02946864487717,229.07898278499704 203.02946864487717,229.18303718378516 C203.02946864487717,229.28709158257328 203.79570857613302,229.35559837580524 204.96023881002873,229.35559837580524 C206.12476904392437,229.35559837580524 206.89100897518034,229.42410516903718 206.89100897518034,229.5281595678252 C206.89100897518034,229.63514750687756 207.89500946105898,229.70072075984524 209.53542856994636,229.70072075984524 L212.18003204758543,229.70072075984524 L212.75484990818188,229.14887006776524 C213.44514621294172,228.48623509040823 213.6922847940812,227.73455853796904 213.6935719741913,226.29263721744962 C213.6943075056828,225.6893632901475 213.77576761836482,225.21412976732435 213.87855814430003,225.21412976732435 C213.9857618591842,225.21412976732435 214.06244101717166,224.63898331432162 214.06244101717166,223.83364023116408 C214.06244101717166,223.02829714800657 214.13912017515904,222.4531506950038 214.24632389004324,222.4531506950038 C214.352608190563,222.4531506950038 214.43020676291482,221.90664939987633 214.43020676291482,221.15894175485366 C214.43020676291482,220.41123410983067 214.50780533526665,219.86473281470333 214.6140896357864,219.86473281470333 C214.72313217939924,219.86473281470333 214.7979725086579,219.23195092356588 214.7979725086579,218.31168208652292 C214.7979725086579,217.39141324948008 214.8728128379167,216.75863135834268 214.98185538152956,216.75863135834268 C215.08905909641368,216.75863135834268 215.16573825440108,216.1834849053399 215.16573825440108,215.3781418221824 C215.16573825440108,214.5727987390249 215.24241741238856,213.99765228602203 215.3496211272727,213.99765228602203 C215.45590542779237,213.99765228602203 215.53350400014426,213.45115099089466 215.53350400014426,212.7034433458718 C215.53350400014426,211.95573570084903 215.61110257249604,211.40923440572166 215.71738687301587,211.40923440572166 C215.8245905879,211.40923440572166 215.90126974588745,210.83408795271882 215.90126974588745,210.0287448695613 C215.90126974588745,209.22340178640385 215.9779489038749,208.64825533340104 216.08515261875903,208.64825533340104 C216.18628819883838,208.64825533340104 216.26903549163055,208.52832530494712 216.26903549163055,208.38164829173004 C216.26903549163055,208.07690522662267 217.07058093447776,207.26776579724074 217.37233272886,207.26776579724074 C218.00286709993665,207.26776579724074 218.47562996608943,208.11469612767507 218.47562996608943,209.2444542518303 C218.47562996608943,209.88241297872835 218.3956409163903,210.37386725360136 218.29174709321782,210.37386725360136 C218.18454337833379,210.37386725360136 218.10786422034633,210.94901370660418 218.10786422034633,211.75435678976172 C218.10786422034633,212.5596998729192 218.03118506235884,213.13484632592196 217.92398134747475,213.13484632592196 C217.81769704695492,213.13484632592196 217.74009847460317,213.68134762104938 217.74009847460317,214.42905526607217 C217.74009847460317,215.176762911095 217.66249990225128,215.72326420622244 217.5562156017316,215.72326420622244 C217.44901188684747,215.72326420622244 217.37233272886,216.2984106592252 217.37233272886,217.10375374238274 C217.37233272886,217.9090968255403 217.29565357087256,218.4842432785431 217.1884498559885,218.4842432785431 C217.08124614110434,218.4842432785431 217.00456698311686,219.0593897315458 217.00456698311686,219.86473281470333 C217.00456698311686,220.6700758978608 216.92788782512946,221.24522235086357 216.82068411024525,221.24522235086357 C216.71458369259844,221.24522235086357 216.63680123737376,221.78827242215058 216.63680123737376,222.52925018068458 C216.63680123737376,223.23554313962262 216.55405394458154,223.86125002188726 216.45291836450215,223.9199208271741 C216.3517827844228,223.97859163246096 216.26903549163055,224.60429851472549 216.26903549163055,225.31059147366358 C216.26903549163055,226.05156923219764 216.19125303640584,226.5946193034846 216.08515261875903,226.5946193034846 C215.60595385205565,226.5946193034846 215.87350343208382,229.97854427899756 216.36961942309128,230.1906219839902 C218.33495956834275,231.0309949891277 223.0727017878788,229.68708842567574 223.0727017878788,228.2893427703135 C223.0727017878788,228.15836882557025 223.2381963734632,227.93938867289674 223.44046753362193,227.80254764762492 C223.64273869378067,227.66570662235304 223.8082332793652,227.4327490131259 223.8082332793652,227.28486407156475 C223.8082332793652,227.13697913000362 223.97372786494952,226.90402152077655 224.1759990251082,226.76718049550465 C224.37827018526698,226.63033947023283 224.54376477085142,226.3973818610057 224.54376477085142,226.2494969194446 C224.54376477085142,226.10161197788344 224.70925935643587,225.86865436865634 224.91153051659458,225.73181334338443 C225.1138016767533,225.59497231811255 225.27929626233777,225.34493115087554 225.27929626233777,225.175993743888 C225.27929626233777,225.0072288980924 225.36204355513,224.86900738328433 225.46317913520937,224.86900738328433 C225.56431471528873,224.86900738328433 225.64706200808084,224.7137023104663 225.64706200808084,224.52388499924425 C225.64706200808084,224.3340676880222 225.72980930087311,224.17876261520414 225.83094488095244,224.17876261520414 C225.9320804610318,224.17876261520414 226.01482775382402,224.04054110039607 226.01482775382402,223.87177625460055 C226.01482775382402,223.70283884761287 226.18032233940843,223.45279768037585 226.38259349956718,223.31595665510397 C226.58486465972592,223.17911562983207 226.7503592453104,222.92907446259505 226.7503592453104,222.76013705560743 C226.7503592453104,222.59137220981185 226.81232777346804,222.45246045023575 226.88827139996403,222.45177020546762 C227.0749125159287,222.4500445935475 227.48589073679665,221.59638437662431 227.48589073679665,221.21088267365158 C227.48589073679665,221.03987453235973 227.56863802958884,220.90009996682352 227.66977360966823,220.90009996682352 C227.77090918974758,220.90009996682352 227.8536564825398,220.74479489400557 227.8536564825398,220.5549775827834 C227.8536564825398,220.36516027156142 227.93640377533202,220.20985519874333 228.03753935541138,220.20985519874333 C228.13867493549077,220.20985519874333 228.22142222828296,220.05455012592537 228.22142222828296,219.86473281470333 C228.22142222828296,219.6749155034812 228.30416952107512,219.51961043066325 228.40530510115445,219.51961043066325 C228.50644068123387,219.51961043066325 228.5891879740261,219.3643053578453 228.5891879740261,219.1744880466232 C228.5891879740261,218.98467073540115 228.6719352668183,218.82936566258306 228.77307084689772,218.82936566258306 C228.87420642697708,218.82936566258306 228.95695371976927,218.59640805335604 228.95695371976927,218.31168208652292 C228.95695371976927,218.02695611968997 229.03970101256144,217.7939985104629 229.14083659264082,217.7939985104629 C229.24197217272024,217.7939985104629 229.32471946551237,217.56104090123586 229.32471946551237,217.27631493440276 C229.32471946551237,216.9915889675697 229.40746675830468,216.75863135834268 229.50860233838395,216.75863135834268 C229.60973791846328,216.75863135834268 229.69248521125562,216.5256737491156 229.69248521125562,216.24094778228257 C229.69248521125562,215.9562218154495 229.7752325040477,215.72326420622244 229.87636808412708,215.72326420622244 C229.9775036642064,215.72326420622244 230.06025095699866,215.4903065969954 230.06025095699866,215.20558063016244 C230.06025095699866,214.9208546633293 230.14299824979094,214.68789705410225 230.2441338298702,214.68789705410225 C230.34526940994962,214.68789705410225 230.42801670274173,214.42077232885524 230.42801670274173,214.09411399236126 C230.42801670274173,213.76745565586737 230.510763995534,213.4523589192388 230.61189957561334,213.393688113952 C230.71303515569275,213.3350173086651 230.79578244848494,213.02440716302908 230.79578244848494,212.7034433458718 C230.79578244848494,212.38247952871458 230.8785297412772,212.07186938307854 230.97966532135655,212.01319857779168 C231.0808009014359,211.95452777250497 231.1635481942282,211.56626509045986 231.1635481942282,211.15039261769155 C231.1635481942282,210.73452014492327 231.24629548702032,210.34625746287813 231.34743106709965,210.28758665759136 C231.4485666471791,210.22891585230454 231.53131393997123,209.68534809744156 231.53131393997123,209.07965831345118 C231.53131393997123,208.4739685294608 231.60118943166248,207.93782090585458 231.6866949675478,207.8882958437448 C232.25213480162788,207.5602570177147 231.92169727907756,195.86388686140475 231.33051384279548,195.2833910114494 C231.23875628923258,195.19314150802285 231.1635481942282,194.82437824067603 231.1635481942282,194.46372534935418 C231.1635481942282,194.1030724580323 231.0808009014359,193.80799281967805 230.97966532135655,193.80799281967805 C230.8785297412772,193.80799281967805 230.79578244848494,193.49738267404197 230.79578244848494,193.11774805159794 C230.79578244848494,192.73811342915383 230.71303515569275,192.4275032835178 230.61189957561334,192.4275032835178 C230.510763995534,192.4275032835178 230.42801670274173,192.19454567429077 230.42801670274173,191.90981970745764 C230.42801670274173,191.6250937406246 230.34526940994962,191.39213613139756 230.2441338298702,191.39213613139756 C230.14299824979094,191.39213613139756 230.06025095699866,191.20266394255955 230.06025095699866,190.97091426167665 C230.06025095699866,190.73916458079376 229.9775036642064,190.5017203805742 229.87636808412708,190.44304957528738 C229.7752325040477,190.38437877000058 229.69248521125562,190.19300840805033 229.69248521125562,190.01768623695799 C229.69248521125562,189.673254097686 228.95290829656605,188.2363370517352 228.7271001286797,188.1422912020843 C228.6511565021837,188.11053994275252 228.5891879740261,187.93590801642833 228.5891879740261,187.75402852003918 C228.5891879740261,187.57197646245805 228.50644068123387,187.42322871493678 228.40530510115445,187.42322871493678 C228.30416952107512,187.42322871493678 228.22142222828296,187.26792364211872 228.22142222828296,187.07810633089676 C228.22142222828296,186.88828901967466 228.13867493549077,186.73298394685662 228.03753935541138,186.73298394685662 C227.93640377533202,186.73298394685662 227.8536564825398,186.59476243204855 227.8536564825398,186.42599758625295 C227.8536564825398,186.25706017926538 227.6881618969554,186.0070190120283 227.48589073679665,185.8701779867564 C227.2836195766379,185.73333696148455 227.1181249910535,185.4832957942475 227.1181249910535,185.31435838725992 C227.1181249910535,185.14559354146434 227.03537769826124,185.0073720266563 226.93424211818177,185.0073720266563 C226.8331065381026,185.0073720266563 226.7503592453104,184.8691505118483 226.7503592453104,184.70038566605265 C226.7503592453104,184.531448259065 226.58486465972592,184.281407091828 226.38259349956718,184.1445660665562 C226.18032233940843,184.00772504128426 226.01482775382402,183.79047050053097 226.01482775382402,183.66156729009208 C226.01482775382402,183.5326640796531 225.68383858265526,183.1288708903262 225.27929626233777,182.7640765303958 C224.87475394202025,182.3992821704655 224.54376477085142,182.01429815106877 224.54376477085142,181.9086907015525 C224.54376477085142,181.65554343285913 220.57925003174023,177.93236315383487 220.3098616229834,177.93236315383487 C220.19530259318446,177.93236315383487 219.78377272369784,177.62175300819885 219.39504433044738,177.24211838575468 C219.00631593719686,176.86248376331068 218.57603001467734,176.5518736176746 218.43866950864228,176.5518736176746 C218.30130900260727,176.5518736176746 218.06980046566187,176.39656854485662 217.92398134747475,176.20675123363446 C217.77816222928763,176.01693392241248 217.529920350911,175.8616288495944 217.37233272886,175.8616288495944 C217.2147451068091,175.8616288495944 216.96650322843243,175.70632377677643 216.82068411024525,175.51650646555441 C216.67486499205816,175.32668915433229 216.40841870926724,175.1713840815143 216.22839737672595,175.1713840815143 C216.04855992705745,175.1713840815143 215.90126974588745,175.0937315451053 215.90126974588745,174.9988228894943 C215.90126974588745,174.90391423388328 215.735775160303,174.82626169747428 215.53350400014426,174.82626169747428 C215.33123283998555,174.82626169747428 215.16573825440108,174.74860916106516 215.16573825440108,174.65370050545417 C215.16573825440108,174.55879184984317 215.0002436688167,174.48113931343417 214.7979725086579,174.48113931343417 C214.59570134849923,174.48113931343417 214.43020676291482,174.40348677702514 214.43020676291482,174.3085781214141 C214.43020676291482,174.21366946580315 214.27151584362662,174.13601692939415 214.07770329561998,174.13601692939415 C213.88389074761338,174.13601692939415 213.69780128026733,174.07786380768334 213.6639668316589,174.0065960353791 C213.56209572008814,173.79141222893006 212.0297997404493,173.10064977727393 211.65449479691836,173.10064977727393 C211.46178554614903,173.10064977727393 211.3041979240981,173.02299724086484 211.3041979240981,172.92808858525387 C211.3041979240981,172.83317992964282 211.05595604572142,172.7555273932338 210.75254930548337,172.7555273932338 C210.4491425652452,172.7555273932338 210.20090068686864,172.67787485682484 210.20090068686864,172.58296620121376 C210.20090068686864,172.4880575456028 209.95265880849198,172.41040500919377 209.6492520682539,172.41040500919377 C209.3458453280158,172.41040500919377 209.09760344963908,172.33275247278476 209.09760344963908,172.23784381717368 C209.09760344963908,172.14293516156263 208.85432640883008,172.06528262515363 208.55680392052375,172.06528262515363 C208.25928143221762,172.06528262515363 207.96488495275023,171.98763008874474 207.90236477597392,171.89272143313372 C207.83984459919756,171.79781277752264 207.4213271805419,171.72016024111358 206.97210132211663,171.72016024111358 C206.52287546369138,171.72016024111358 206.15547748369394,171.6425077047046 206.15547748369394,171.5475990490936 C206.15547748369394,171.45200014871452 205.6687395192029,171.37503785707355 205.0630293359639,171.37503785707355 C204.46210010741962,171.37503785707355 203.91946174957562,171.29738532066455 203.8569415727992,171.20247666505352 C203.70321549107857,170.9690013722504 195.91982124817062,170.9690013722504 195.76609516644996,171.20247666505352 M210.56866643261174,180.5207810341354 C210.56866643261174,180.71059834535743 210.65141372540396,180.8659034181755 210.75254930548337,180.8659034181755 C210.85368488556273,180.8659034181755 210.93643217835492,181.02120849099347 210.93643217835492,181.21102580221554 C210.93643217835492,181.40084311343765 211.0191794711471,181.5561481862556 211.1203150512265,181.5561481862556 C211.22145063130586,181.5561481862556 211.3041979240981,181.71145325907364 211.3041979240981,181.90127057029562 C211.3041979240981,182.09108788151772 211.3869452168902,182.24639295433568 211.48808079696963,182.24639295433568 C211.58921637704896,182.24639295433568 211.67196366984118,182.47935056356278 211.67196366984118,182.7640765303958 C211.67196366984118,183.04880249722888 211.75471096263334,183.28176010645595 211.8558465427128,183.28176010645595 C211.9569821227921,183.28176010645595 212.0397294155843,183.514717715683 212.0397294155843,183.79944368251603 C212.0397294155843,184.08416964934906 212.12247670837658,184.31712725857614 212.22361228845588,184.31712725857614 C212.32474786853527,184.31712725857614 212.40749516132752,184.62773740421224 212.40749516132752,185.0073720266563 C212.40749516132752,185.3870066491004 212.49024245411968,185.69761679473652 212.59137803419904,185.69761679473652 C212.7064887126167,185.69761679473652 212.7752609070706,186.76180166592394 212.7752609070706,188.544876463067 C212.7752609070706,190.32795126021009 212.7064887126167,191.39213613139756 212.59137803419904,191.39213613139756 C212.49024245411968,191.39213613139756 212.40749516132752,191.78039881344267 212.40749516132752,192.25494209149775 C212.40749516132752,192.72948536955278 212.32474786853527,193.11774805159794 212.22361228845588,193.11774805159794 C212.12247670837658,193.11774805159794 212.0397294155843,193.350705660825 212.0397294155843,193.63543162765805 C212.0397294155843,193.9201575944911 211.9569821227921,194.15311520371816 211.8558465427128,194.15311520371816 C211.75471096263334,194.15311520371816 211.67196366984118,194.3084202765361 211.67196366984118,194.4982375877582 C211.67196366984118,194.6880548989802 211.58921637704896,194.84335997179826 211.48808079696963,194.84335997179826 C211.3869452168902,194.84335997179826 211.3041979240981,195.07631758102522 211.3041979240981,195.36104354785832 C211.3041979240981,195.64576951469138 211.22145063130586,195.87872712391848 211.1203150512265,195.87872712391848 C211.0191794711471,195.87872712391848 210.93643217835492,196.01694863872655 210.93643217835492,196.18571348452204 C210.93643217835492,196.3546508915097 210.77093759277054,196.6046920587468 210.56866643261174,196.74153308401867 C210.36639527245308,196.8783741092906 210.20090068686864,197.08958900832303 210.20090068686864,197.2110720875052 C210.20090068686864,197.33238260549524 210.11815339407644,197.4317778520987 210.017017813997,197.4317778520987 C209.91588223391767,197.4317778520987 209.83313494112548,197.554296298433 209.83313494112548,197.7040794131064 C209.83313494112548,197.85403508897178 209.50214576995663,198.27491183630866 209.09760344963908,198.63970619623905 C208.69306112932162,199.00450055616938 208.36207195815282,199.388621769606 208.36207195815282,199.49353897435415 C208.36207195815282,199.71873132994028 206.7898733951008,201.22812407653953 206.5554227321896,201.22812407653953 C206.46660730459269,201.22812407653953 206.1306532958563,201.46418778722295 205.80904215120393,201.7525375390884 C205.2765173513678,202.23018691859986 205.19836713039743,202.25279243475453 204.93431132495382,202.00482200182176 C204.67007163663735,201.75702413008102 204.67889801453515,201.7045655277069 205.0321370133215,201.41707858180152 C205.24544114585254,201.24348202262934 205.4199459922077,201.00569270002575 205.4199459922077,200.88886877302812 C205.4199459922077,200.77204484603055 205.66818787058426,200.45867372132219 205.97159461082236,200.19275692441934 C206.27500135106044,199.9268401275165 206.52324322943707,199.60207996413476 206.52324322943707,199.47145114177565 C206.52324322943707,199.34064975822443 206.68873781502154,199.12166960555098 206.89100897518034,198.9848285802791 C207.09328013533897,198.84798755500722 207.25877472092338,198.5979463877702 207.25877472092338,198.42900898078256 C207.25877472092338,198.26024413498692 207.34152201371563,198.1220226201789 207.442657593795,198.1220226201789 C207.54379317387432,198.1220226201789 207.62654046666657,197.96671754736093 207.62654046666657,197.77690023613889 C207.62654046666657,197.5870829249168 207.70928775945876,197.4317778520987 207.81042333953812,197.4317778520987 C207.91155891961748,197.4317778520987 207.9943062124097,197.27647277928077 207.9943062124097,197.08665546805872 C207.9943062124097,196.89683815683674 208.07705350520192,196.74153308401867 208.17818908528128,196.74153308401867 C208.2793246653606,196.74153308401867 208.36207195815282,196.62505427940508 208.36207195815282,196.4826912959886 C208.36207195815282,196.34032831257204 208.44481925094507,196.22384950795853 208.5459548310244,196.22384950795853 C208.64709041110385,196.22384950795853 208.72983770389598,196.06854443514055 208.72983770389598,195.87872712391848 C208.72983770389598,195.68890981269647 208.81258499668823,195.53360473987843 208.9137205767676,195.53360473987843 C209.01485615684692,195.53360473987843 209.09760344963908,195.38295881924483 209.09760344963908,195.1986634661676 C209.09760344963908,195.01436811309017 209.1803507424314,194.81575018107503 209.28148632251072,194.7570793757882 C209.3826219025901,194.69840857050147 209.46536919538235,194.4609643702819 209.46536919538235,194.229214689399 C209.46536919538235,193.99746500851612 209.54811648817454,193.80799281967805 209.6492520682539,193.80799281967805 C209.75038764833323,193.80799281967805 209.83313494112548,193.49738267404197 209.83313494112548,193.11774805159794 C209.83313494112548,192.73811342915383 209.91588223391767,192.4275032835178 210.017017813997,192.4275032835178 C210.11815339407644,192.4275032835178 210.20090068686864,192.1168931378817 210.20090068686864,191.73725851543767 C210.20090068686864,191.3576238929936 210.28364797966077,191.04701374735754 210.3847835597402,191.04701374735754 C210.48702243705677,191.04701374735754 210.56866643261174,190.58679304824 210.56866643261174,190.01164659523735 C210.56866643261174,189.43650014223442 210.65031042816673,188.9762794431171 210.75254930548337,188.9762794431171 C210.86765998390098,188.9762794431171 210.93643217835492,187.91209457192952 210.93643217835492,186.12901977478649 C210.93643217835492,184.34594497764354 210.86765998390098,183.28176010645595 210.75254930548337,183.28176010645595 C210.65031042816673,183.28176010645595 210.56866643261174,182.82153940733846 210.56866643261174,182.24639295433568 C210.56866643261174,181.6712465013329 210.48702243705677,181.21102580221554 210.3847835597402,181.21102580221554 C210.28364797966077,181.21102580221554 210.20090068686864,180.97806819298847 210.20090068686864,180.69334222615535 C210.20090068686864,180.40861625932232 210.28364797966077,180.17565865009522 210.3847835597402,180.17565865009522 C210.48591913981954,180.17565865009522 210.56866643261174,180.33096372291337 210.56866643261174,180.5207810341354 M195.77915085042383,193.36433799499463 C196.06858249232374,193.63577675004208 196.14084846136222,194.4982375877582 195.87421829569845,194.4982375877582 C195.78190909351687,194.4982375877582 195.6506167222866,194.80884773339426 195.58221229357838,195.18848235583832 C195.44816167925498,195.9325662158287 195.12232122852666,196.0757920052053 194.62473417453606,195.60884141959914 C194.40995897902206,195.40728994731975 194.39009962875198,195.289085530786 194.5458484220742,195.14292620114503 C194.66077521761898,195.03507545613252 194.75473936565635,194.8097105393543 194.75473936565635,194.6421536219029 C194.75473936565635,194.3403440970599 195.30877846161835,193.11774805159794 195.44558731903481,193.11774805159794 C195.48457048808362,193.11774805159794 195.63480279521968,193.22870489806684 195.77915085042383,193.36433799499463 " stroke="url(#svg_16)" fill="none" fill-rule="evenodd" fill-opacity="1" stroke-width="1.75" opacity="1" stroke-opacity="1"/></g></g></svg>