<?xml version="1.0" encoding="iso-8859-1"?>
<!-- Generator: Adobe Illustrator 19.0.0, SVG Export Plug-In . SVG Version: 6.00 Build 0)  -->
<svg version="1.1" id="Layer_1" xmlns="http://www.w3.org/2000/svg" xmlns:xlink="http://www.w3.org/1999/xlink" x="0px" y="0px"
	 viewBox="0 0 512 512" style="enable-background:new 0 0 512 512;" xml:space="preserve">
<circle style="fill:#FEE187;" cx="256" cy="256" r="256"/>
<g>
	<path style="fill:#FFC61B;" d="M396.335,334.848L256.388,193.314l-27.826-19.342l-105.879,13.464l280.45,278.071
		c26.181-18.42,48.747-41.624,66.441-68.341l-64.167-64.167L396.335,334.848z"/>
	<path style="fill:#FFC61B;" d="M397.515,469.344L247.956,319.785l-24.588,11.876l-100.683,6.511l171.053,171.053
		C331.681,503.618,366.909,489.686,397.515,469.344z"/>
	<path style="fill:#FFC61B;" d="M474.057,390.158c19.115-31.001,31.796-66.382,36.2-104.295L405.333,177.769l-30.832,0.777
		l-2.105-2.105l-8.504,1.634l-11.64-0.514l2.31,2.31l-81.124,11.185L474.057,390.158z"/>
</g>
<g>
	<path style="fill:#43739B;" d="M210.137,342.571h-80.413c-5.711,0-10.343-4.632-10.343-10.343s4.632-10.343,10.343-10.343h80.413
		c7.864,0,15.339-2.476,21.621-7.158c4.575-3.415,11.061-2.47,14.474,2.112c3.413,4.579,2.47,11.061-2.112,14.474
		C234.243,338.677,222.491,342.571,210.137,342.571z"/>
	<path style="fill:#43739B;" d="M402.52,172.553l-36.936-36.938c-4.039-4.041-10.59-4.039-14.627-0.002
		c-4.041,4.041-4.041,10.59-0.002,14.627l19.28,19.282h-66.986c-9.087,0-18.129,2.196-26.148,6.353
		c-5.07,2.627-7.053,8.871-4.424,13.943c1.839,3.551,5.451,5.585,9.192,5.585c1.603,0,3.229-0.374,4.751-1.162
		c5.163-2.676,10.759-4.032,16.629-4.032h66.986l-19.278,19.28c-4.041,4.039-4.041,10.588,0,14.626
		c2.019,2.02,4.667,3.031,7.313,3.031s5.294-1.01,7.313-3.031l36.936-36.936C406.559,183.139,406.559,176.592,402.52,172.553z"/>
	<path style="fill:#43739B;" d="M402.518,325.684l-36.936-36.936c-4.037-4.041-10.59-4.041-14.626,0
		c-4.041,4.039-4.041,10.588,0,14.626l18.51,18.51h-66.217c-19.968,0-36.212-16.244-36.212-36.211v-59.254
		c0-31.373-25.526-56.898-56.899-56.898h-80.413c-5.711,0-10.343,4.632-10.343,10.343c0,5.711,4.632,10.343,10.343,10.343h80.413
		c19.968,0,36.212,16.244,36.212,36.211v59.254c0,31.373,25.526,56.898,56.899,56.898h67.755l-20.049,20.051
		c-4.039,4.039-4.039,10.588,0.002,14.627c2.019,2.019,4.667,3.029,7.313,3.029s5.294-1.01,7.315-3.031l36.936-36.938
		C406.559,336.27,406.559,329.723,402.518,325.684z"/>
</g>
<g>
</g>
<g>
</g>
<g>
</g>
<g>
</g>
<g>
</g>
<g>
</g>
<g>
</g>
<g>
</g>
<g>
</g>
<g>
</g>
<g>
</g>
<g>
</g>
<g>
</g>
<g>
</g>
<g>
</g>
</svg>
