<?xml version="1.0" encoding="iso-8859-1"?>
<!-- Generator: Adobe Illustrator 19.0.0, SVG Export Plug-In . SVG Version: 6.00 Build 0)  -->
<svg version="1.1" id="Layer_1" xmlns="http://www.w3.org/2000/svg" xmlns:xlink="http://www.w3.org/1999/xlink" x="0px" y="0px"
	 viewBox="0 0 512 512" style="enable-background:new 0 0 512 512;" xml:space="preserve">
<polygon style="fill:#FE5F1A;" points="512,401.723 374.716,512 433.231,401.723 374.716,291.446 "/>
<path style="fill:#FE834D;" d="M209.334,74.826c-28.061-21.403-61.641-33.191-94.556-33.191H0v137.284h114.778
	c6.234,0,17.518,8.607,19.167,14.62l44.194,161.218l88.205-197.512C257.642,125.5,237.396,96.231,209.334,74.826z"/>
<polygon style="fill:#FEDC3D;" points="512,110.277 374.716,220.554 433.231,110.277 374.716,0 "/>
<path style="fill:#FE834D;" d="M466.989,401.723l-92.273-110.277v41.635h-45.011c-5.84,0-16.103-7.551-18.736-13.436
	l-61.541,127.291c24.824,15.202,52.775,23.428,80.277,23.428h45.011V512L466.989,401.723z"/>
<path style="fill:#FE5F1A;" d="M310.97,319.646l-12.074,44.032c-8.462,30.889-25.713,59.741-49.467,83.259
	c-4.895-2.982-9.666-6.245-14.28-9.767c-28.064-21.403-48.308-50.671-57.006-82.415l88.199-197.508l44.201,161.218
	C310.643,318.847,310.79,319.24,310.97,319.646z"/>
<path style="fill:#FFE777;" d="M466.989,110.277L374.716,0v41.635h-45.011c-32.914,0-66.495,11.788-94.556,33.191
	c-28.062,21.404-48.308,50.673-57.01,82.417l-44.194,161.218c-1.65,6.012-12.934,14.62-19.168,14.62H0v137.284h114.778
	c32.914,0,66.495-11.788,94.556-33.191c28.062-21.404,48.308-50.673,57.01-82.417l44.194-161.218
	c1.65-6.012,12.934-14.62,19.168-14.62h45.011v41.635L466.989,110.277z"/>
<g>
	<circle style="fill:#FEDC3D;" cx="81.02" cy="411.851" r="8.44"/>
	<circle style="fill:#FEDC3D;" cx="126.031" cy="389.345" r="8.44"/>
</g>
<g>
</g>
<g>
</g>
<g>
</g>
<g>
</g>
<g>
</g>
<g>
</g>
<g>
</g>
<g>
</g>
<g>
</g>
<g>
</g>
<g>
</g>
<g>
</g>
<g>
</g>
<g>
</g>
<g>
</g>
</svg>
