<svg width="32" height="32" viewBox="0 0 32 32" fill="none" xmlns="http://www.w3.org/2000/svg">
<circle cx="16" cy="16" r="16" fill="#FFBB54"/>
<g clip-path="url(#clip0)">
<path d="M9.27644 19.4148V14.4426C9.27644 14.2769 9.15347 14.1318 8.96901 14.1318H6.20209C6.01763 14.1318 5.89465 14.2769 5.89465 14.4426V19.4148C5.89465 19.5805 6.01763 19.7256 6.20209 19.7256H8.96901C9.13297 19.7048 9.27644 19.5805 9.27644 19.4148ZM8.66157 19.104H6.48903V14.7326H8.66157V19.104Z" fill="white"/>
<path d="M15.4048 9.34613L10.0144 14.2147C9.95292 14.2769 9.91193 14.3598 9.91193 14.4426V19.4148C9.91193 19.5184 9.95292 19.6013 10.0349 19.6634L15.4458 23.3719C15.4868 23.4133 15.5482 23.434 15.6097 23.434C15.6507 23.434 15.7122 23.4133 15.7532 23.3926C15.8557 23.3304 15.9172 23.2476 15.9172 23.1233V9.57402C15.9172 9.44972 15.8557 9.34613 15.7327 9.30469C15.6302 9.24254 15.5072 9.26326 15.4048 9.34613ZM15.3228 22.5432L10.5063 19.2491V14.5669L15.3228 10.237V22.5432Z" fill="white"/>
<path d="M21.0818 22.6881C21.0818 22.916 21.1637 23.1439 21.3277 23.3097C21.5122 23.4961 21.7376 23.579 21.9631 23.579C22.1885 23.579 22.414 23.4961 22.578 23.3304C24.2996 21.6315 25.2629 19.3526 25.2629 16.9287C25.2629 14.5047 24.3201 12.2258 22.5984 10.527C22.25 10.1748 21.6761 10.1955 21.3277 10.5477C20.9793 10.8999 20.9998 11.48 21.3482 11.8322C22.7214 13.1788 23.4798 15.0019 23.4798 16.9494C23.4798 18.8968 22.7214 20.6993 21.3482 22.0666C21.1637 22.2116 21.0818 22.4395 21.0818 22.6881ZM21.7581 22.4602C23.2543 20.9893 24.0741 19.0211 24.0741 16.908C24.0741 14.7948 23.2543 12.8266 21.7581 11.3557C21.6351 11.2314 21.6351 11.0449 21.7581 10.9206C21.8196 10.8584 21.9016 10.8377 21.9631 10.8377C22.0451 10.8377 22.1066 10.8584 22.168 10.9206C23.7872 12.5366 24.6685 14.6497 24.6685 16.9287C24.6685 19.2076 23.7872 21.3208 22.168 22.8953C22.0451 23.0196 21.8606 22.9989 21.7376 22.8953C21.6761 22.8332 21.6556 22.771 21.6556 22.6881C21.6761 22.6053 21.6966 22.5224 21.7581 22.4602Z" fill="white"/>
<path d="M17.5569 20.5749C17.5569 20.8028 17.6389 21.0307 17.8028 21.1965C17.9668 21.3622 18.1923 21.4658 18.4382 21.4658H18.4587C18.6841 21.4658 18.9096 21.3829 19.0736 21.2172C20.2418 20.0777 20.8977 18.5446 20.8977 16.9079C20.8977 15.2713 20.2418 13.7382 19.0736 12.5987C18.9096 12.433 18.6637 12.3501 18.4382 12.3501C18.1923 12.3501 17.9873 12.4537 17.8028 12.6194C17.6389 12.7852 17.5569 13.0131 17.5569 13.2617C17.5569 13.5103 17.6594 13.7175 17.8233 13.8832C18.6432 14.6705 19.0941 15.7478 19.0941 16.8872C19.0941 18.0267 18.6432 19.104 17.8233 19.8913C17.6594 20.0984 17.5569 20.3263 17.5569 20.5749ZM18.2537 20.3678C19.1965 19.4562 19.7089 18.2339 19.7089 16.9287C19.7089 15.6235 19.1965 14.4011 18.2537 13.4896C18.1922 13.4274 18.1718 13.3653 18.1718 13.2824C18.1718 13.1995 18.1922 13.1166 18.2537 13.0752C18.3152 13.0131 18.3767 12.9923 18.4587 12.9923C18.5407 12.9923 18.6022 13.0131 18.6637 13.0752C19.7294 14.0904 20.3033 15.4784 20.3033 16.9494C20.3033 18.4203 19.7294 19.7877 18.6637 20.8236C18.6022 20.8857 18.5202 20.9064 18.4587 20.9064C18.3767 20.9064 18.3152 20.865 18.2537 20.8236C18.1922 20.7614 18.1718 20.6992 18.1718 20.6164C18.1718 20.4921 18.1922 20.4092 18.2537 20.3678Z" fill="white"/>
</g>
<defs>
<clipPath id="clip0">
<rect x="5.89465" y="9.26318" width="19.3684" height="14.3158" fill="white"/>
</clipPath>
</defs>
</svg>
