<svg width="20" height="15" viewBox="0 0 20 15" fill="none" xmlns="http://www.w3.org/2000/svg">
<path d="M3.38179 10.1462V5.17404C3.38179 5.0083 3.25881 4.86328 3.07435 4.86328H0.307435C0.122974 4.86328 0 5.0083 0 5.17404V10.1462C0 10.312 0.122974 10.457 0.307435 10.457H3.07435C3.23832 10.4363 3.38179 10.312 3.38179 10.1462ZM2.76692 9.83548H0.594375V5.46409H2.76692V9.83548Z" fill="white"/>
<path d="M9.51012 0.0775732L4.11975 4.94618C4.05826 5.00834 4.01727 5.09121 4.01727 5.17408V10.1463C4.01727 10.2499 4.05826 10.3327 4.14025 10.3949L9.55111 14.1033C9.5921 14.1448 9.65359 14.1655 9.71507 14.1655C9.75606 14.1655 9.81755 14.1448 9.85854 14.124C9.96102 14.0619 10.0225 13.979 10.0225 13.8547V0.305466C10.0225 0.181161 9.96102 0.0775732 9.83805 0.0361382C9.73557 -0.0260143 9.61259 -0.00529677 9.51012 0.0775732ZM9.42813 13.2746L4.61165 9.98054V5.29838L9.42813 0.968425V13.2746Z" fill="white"/>
<path d="M15.1871 13.4196C15.1871 13.6475 15.2691 13.8754 15.4331 14.0411C15.6175 14.2276 15.843 14.3104 16.0684 14.3104C16.2939 14.3104 16.5193 14.2276 16.6833 14.0618C18.4049 12.363 19.3682 10.0841 19.3682 7.66012C19.3682 5.23617 18.4254 2.95725 16.7038 1.25841C16.3554 0.906215 15.7815 0.926932 15.4331 1.27913C15.0846 1.63133 15.1051 2.21142 15.4536 2.56361C16.8268 3.91025 17.5851 5.73339 17.5851 7.68083C17.5851 9.62828 16.8268 11.4307 15.4536 12.7981C15.2691 12.9431 15.1871 13.171 15.1871 13.4196ZM15.8635 13.1917C17.3597 11.7207 18.1795 9.75258 18.1795 7.6394C18.1795 5.52622 17.3597 3.55805 15.8635 2.08711C15.7405 1.96281 15.7405 1.77635 15.8635 1.65204C15.925 1.58989 16.0069 1.56917 16.0684 1.56917C16.1504 1.56917 16.2119 1.58989 16.2734 1.65204C17.8925 3.26801 18.7739 5.38119 18.7739 7.66012C18.7739 9.93904 17.8925 12.0522 16.2734 13.6268C16.1504 13.7511 15.9659 13.7303 15.843 13.6268C15.7815 13.5646 15.761 13.5025 15.761 13.4196C15.7815 13.3367 15.802 13.2538 15.8635 13.1917Z" fill="white"/>
<path d="M11.6622 11.3064C11.6622 11.5343 11.7442 11.7622 11.9082 11.9279C12.0721 12.0937 12.2976 12.1972 12.5435 12.1972H12.564C12.7895 12.1972 13.0149 12.1144 13.1789 11.9486C14.3472 10.8092 15.003 9.27607 15.003 7.63939C15.003 6.00271 14.3472 4.46962 13.1789 3.33015C13.0149 3.16441 12.769 3.08154 12.5435 3.08154C12.2976 3.08154 12.0926 3.18513 11.9082 3.35087C11.7442 3.51661 11.6622 3.7445 11.6622 3.99311C11.6622 4.24172 11.7647 4.4489 11.9287 4.61464C12.7485 5.4019 13.1994 6.47921 13.1994 7.61867C13.1994 8.75814 12.7485 9.83545 11.9287 10.6227C11.7647 10.8299 11.6622 11.0578 11.6622 11.3064ZM12.3591 11.0992C13.3019 10.1876 13.8143 8.96531 13.8143 7.66011C13.8143 6.35491 13.3019 5.13258 12.3591 4.22101C12.2976 4.15885 12.2771 4.0967 12.2771 4.01383C12.2771 3.93096 12.2976 3.84809 12.3591 3.80666C12.4206 3.7445 12.4821 3.72379 12.564 3.72379C12.646 3.72379 12.7075 3.7445 12.769 3.80666C13.8348 4.82181 14.4087 6.20988 14.4087 7.68083C14.4087 9.15177 13.8348 10.5191 12.769 11.555C12.7075 11.6172 12.6255 11.6379 12.564 11.6379C12.4821 11.6379 12.4206 11.5964 12.3591 11.555C12.2976 11.4928 12.2771 11.4307 12.2771 11.3478C12.2771 11.2235 12.2976 11.1406 12.3591 11.0992Z" fill="white"/>
</svg>
