<svg width="36" height="27" viewBox="0 0 36 27" fill="none" xmlns="http://www.w3.org/2000/svg">
<rect x="0.776924" y="0.642883" width="16.3846" height="11.8571" rx="0.5" stroke="white"/>
<rect x="19.0308" y="14.3571" width="16.3846" height="11.8571" rx="0.5" stroke="white"/>
<rect x="0.276924" y="3.57141" width="17.3846" height="0.857143" fill="white"/>
<rect x="0.276924" y="8.71429" width="17.3846" height="0.857143" fill="white"/>
<rect x="18.5308" y="19.8571" width="17.3846" height="0.857143" fill="white"/>
<rect x="25.4846" y="26.7143" width="12.8571" height="0.869231" transform="rotate(-90 25.4846 26.7143)" fill="white"/>
<path d="M30.7 11.2857L30.2089 11.3959L30.2095 11.3983L30.7 11.2857ZM30.4322 11.7076C30.6675 11.8526 30.978 11.7813 31.1259 11.5483L33.5357 7.75154C33.6836 7.51855 33.6128 7.21212 33.3776 7.06711C33.1423 6.92209 32.8318 6.99341 32.6839 7.2264L30.5418 10.6013L27.1346 8.50075C26.8994 8.35574 26.5888 8.42706 26.4409 8.66004C26.293 8.89303 26.3638 9.19946 26.5991 9.34447L30.4322 11.7076ZM20.0409 4.41311C24.406 4.2503 26.7732 5.422 28.1281 6.8535C29.5039 8.30714 29.9179 10.1062 30.2089 11.3959L31.191 11.1755C30.9026 9.89762 30.4474 7.84546 28.8645 6.17308C27.2607 4.47857 24.5797 3.24947 20.0074 3.42002L20.0409 4.41311ZM30.2095 11.3983L30.2095 11.3984L31.1905 11.1731L31.1905 11.173L30.2095 11.3983Z" fill="white"/>
<path d="M6.17664 15.5715L6.66339 15.444L6.66334 15.4438L6.17664 15.5715ZM6.43122 15.1415C6.19168 15.0037 5.88352 15.0846 5.74292 15.322L3.45161 19.1918C3.31101 19.4293 3.3912 19.7335 3.63073 19.8712C3.87027 20.009 4.17843 19.9281 4.31903 19.6906L6.35575 16.2508L9.82544 18.246C10.065 18.3837 10.3731 18.3029 10.5137 18.0654C10.6543 17.8279 10.5741 17.5238 10.3346 17.386L6.43122 15.1415ZM17.0731 22.0726C12.7165 22.3857 10.309 21.2962 8.90403 19.9121C7.47743 18.5066 6.99997 16.7228 6.66339 15.444L5.68988 15.699C6.0234 16.9662 6.55107 19.0013 8.1921 20.618C9.85478 22.2561 12.5774 23.392 17.1409 23.0641L17.0731 22.0726ZM6.66334 15.4438L6.66333 15.4438L5.68992 15.6991L5.68994 15.6992L6.66334 15.4438Z" fill="white"/>
</svg>
