<svg width="61" height="60" viewBox="0 0 61 60" fill="none" xmlns="http://www.w3.org/2000/svg">
<path d="M23.3747 15.6603C25.0344 17.4546 28.0699 16.6032 28.4887 14.1727C28.863 12 31.9832 12 32.3575 14.1727C32.7762 16.6032 35.8118 17.4546 37.4715 15.6603C38.2177 14.8536 39.2407 14.8551 39.9945 15.3263C40.7454 15.7956 41.1701 16.6914 40.7381 17.6907C39.7609 19.9517 41.8451 22.3197 44.2096 21.6991C45.2659 21.4219 46.1175 21.9712 46.4924 22.7698C46.8661 23.5657 46.738 24.5443 45.8378 25.1473C43.7999 26.5124 44.2439 29.6284 46.5821 30.3697C48.6329 31.0199 48.2201 34.0789 46.0225 34.1341C43.5735 34.1957 42.2615 37.0595 43.8355 38.9457C44.5299 39.7779 44.3753 40.7516 43.7886 41.4103C43.1992 42.0718 42.2203 42.3597 41.2808 41.7971C39.1852 40.5423 36.5105 42.217 36.8033 44.6662C36.9334 45.7549 36.2685 46.5041 35.4144 46.748C34.5582 46.9926 33.5779 46.7093 33.0891 45.7212C32.0002 43.5202 28.846 43.5202 27.7571 45.7212C27.2682 46.7093 26.288 46.9926 25.4318 46.748C24.5777 46.5041 23.9128 45.7549 24.0429 44.6662C24.3356 42.217 21.661 40.5423 19.5654 41.7971C18.6258 42.3597 17.647 42.0718 17.0576 41.4103C16.4708 40.7516 16.3163 39.7779 17.0107 38.9457C18.5847 37.0595 17.2727 34.1957 14.8236 34.1341C12.6261 34.0789 12.2133 31.0199 14.264 30.3697C16.6023 29.6284 17.0463 26.5124 15.0083 25.1473C14.1081 24.5443 13.98 23.5657 14.3537 22.7698C14.7287 21.9712 15.5802 21.4219 16.6365 21.6991C19.0011 22.3197 21.0853 19.9517 20.108 17.6907C19.6761 16.6914 20.1008 15.7956 20.8516 15.3263C21.6055 14.8551 22.6284 14.8536 23.3747 15.6603Z" stroke="white"/>
<path d="M37.6302 29.6C37.6302 33.7356 34.2285 37.1 30.0174 37.1C25.8064 37.1 22.4046 33.7356 22.4046 29.6C22.4046 25.4645 25.8064 22.1 30.0174 22.1C34.2285 22.1 37.6302 25.4645 37.6302 29.6Z" stroke="white"/>
</svg>
