<?xml version="1.0" encoding="utf-8"?>
<!-- Generator: Adobe Illustrator 21.1.0, SVG Export Plug-In . SVG Version: 6.00 Build 0)  -->
<svg version="1.1" id="Layer_1" xmlns="http://www.w3.org/2000/svg" xmlns:xlink="http://www.w3.org/1999/xlink" x="0px" y="0px"
	 viewBox="0 0 150 150" enable-background="new 0 0 150 150" xml:space="preserve">
<g id="XMLID_28468_">
	<path id="XMLID_28490_" fill="#FFBB54" d="M58.1,37.8c2.9,0,5.3-2.4,5.3-5.3V13.2c0-2.9-2.4-5.3-5.3-5.3c-2.9,0-5.3,2.4-5.3,5.3
		v19.2C52.8,35.4,55.2,37.8,58.1,37.8z M56,13.2c0-1.2,1-2.1,2.1-2.1c1.2,0,2.1,1,2.1,2.1v19.2c0,1.2-1,2.1-2.1,2.1
		c-1.2,0-2.1-1-2.1-2.1V13.2z"/>
	<path id="XMLID_28487_" fill="#FFBB54" d="M52.8,88.6c0,2.9,2.4,5.3,5.3,5.3c2.9,0,5.3-2.4,5.3-5.3V69.4c0-2.9-2.4-5.3-5.3-5.3
		c-2.9,0-5.3,2.4-5.3,5.3V88.6z M56,69.4c0-1.2,1-2.1,2.1-2.1c1.2,0,2.1,1,2.1,2.1v19.2c0,1.2-1,2.1-2.1,2.1c-1.2,0-2.1-1-2.1-2.1
		V69.4z"/>
	<path id="XMLID_28484_" fill="#FFBB54" d="M84.8,18.9c-1.4,0-2.8,0.6-3.8,1.6L67.4,34.1c-1,1-1.6,2.3-1.6,3.8
		c0,1.4,0.6,2.8,1.6,3.8c1,1,2.3,1.6,3.8,1.6c1.4,0,2.8-0.6,3.8-1.6L88.5,28c1-1,1.6-2.3,1.6-3.8c0-1.4-0.6-2.8-1.6-3.8
		C87.5,19.5,86.2,18.9,84.8,18.9z M69.7,39.3c-0.4-0.4-0.6-0.9-0.6-1.5c0-0.6,0.2-1.1,0.6-1.5l13.6-13.6c0.4-0.4,0.9-0.6,1.5-0.6
		c0.6,0,1.1,0.2,1.5,0.6c0.4,0.4,0.6,0.9,0.6,1.5c0,0.6-0.2,1.1-0.6,1.5L72.7,39.3C71.9,40.1,70.5,40.1,69.7,39.3z"/>
	<path id="XMLID_28481_" fill="#FFBB54" d="M50.4,64c0-1.4-0.6-2.8-1.6-3.8c-2.1-2.1-5.5-2.1-7.5,0L27.7,73.8c-1,1-1.6,2.3-1.6,3.8
		c0,1.4,0.6,2.8,1.6,3.8c1,1,2.3,1.6,3.8,1.6c1.4,0,2.8-0.6,3.8-1.6l13.6-13.6C49.8,66.7,50.4,65.4,50.4,64z M46.6,65.5L33,79.1
		c-0.8,0.8-2.2,0.8-3,0c-0.4-0.4-0.6-0.9-0.6-1.5c0-0.6,0.2-1.1,0.6-1.5l13.6-13.6c0.4-0.4,1-0.6,1.5-0.6c0.5,0,1.1,0.2,1.5,0.6
		c0.4,0.4,0.6,0.9,0.6,1.5C47.2,64.5,47,65.1,46.6,65.5z"/>
	<path id="XMLID_28478_" fill="#FFBB54" d="M71.3,50.9c0,2.9,2.4,5.3,5.3,5.3h19.2c2.9,0,5.3-2.4,5.3-5.3c0-2.9-2.4-5.3-5.3-5.3
		H76.6C73.7,45.6,71.3,47.9,71.3,50.9z M98,50.9c0,1.2-1,2.1-2.1,2.1H76.6c-1.2,0-2.1-1-2.1-2.1c0-1.2,1-2.1,2.1-2.1h19.2
		C97,48.8,98,49.7,98,50.9z"/>
	<path id="XMLID_28475_" fill="#FFBB54" d="M20.4,56.2h19.2c2.9,0,5.3-2.4,5.3-5.3c0-2.9-2.4-5.3-5.3-5.3H20.4
		c-2.9,0-5.3,2.4-5.3,5.3C15.1,53.8,17.5,56.2,20.4,56.2z M20.4,48.8h19.2c1.2,0,2.1,1,2.1,2.1c0,1.2-1,2.1-2.1,2.1H20.4
		c-1.2,0-2.1-1-2.1-2.1C18.3,49.7,19.3,48.8,20.4,48.8z"/>
	<path id="XMLID_28472_" fill="#FFBB54" d="M41.3,41.6c1,1,2.3,1.6,3.8,1.6c1.4,0,2.8-0.6,3.8-1.6c1-1,1.6-2.3,1.6-3.8
		c0-1.4-0.6-2.8-1.6-3.8L35.2,20.5c-2.1-2.1-5.5-2.1-7.6,0c-1,1-1.6,2.3-1.6,3.8c0,1.4,0.6,2.8,1.6,3.8L41.3,41.6z M30,22.7
		c0.4-0.4,1-0.6,1.5-0.6c0.5,0,1.1,0.2,1.5,0.6l13.6,13.6c0.4,0.4,0.6,0.9,0.6,1.5c0,0.6-0.2,1.1-0.6,1.5c-0.8,0.8-2.2,0.8-3,0
		L30,25.7c-0.4-0.4-0.6-0.9-0.6-1.5C29.3,23.7,29.6,23.1,30,22.7z"/>
	<path id="XMLID_28469_" fill="#FFBB54" d="M134.6,88.7c-0.1-0.8-0.6-1.4-1.3-1.7L70.8,60c-0.7-0.3-1.5-0.2-2.1,0.3
		c-0.6,0.5-0.9,1.2-0.8,2l8.6,67.6c0.1,0.8,0.6,1.4,1.3,1.7c0.7,0.3,1.5,0.2,2.1-0.3l15.7-11.8l16.4,21.8c0.4,0.6,1.1,0.9,1.7,0.9
		c0.4,0,0.9-0.1,1.3-0.4l19.2-14.5c0.5-0.3,0.8-0.8,0.8-1.4c0.1-0.6-0.1-1.1-0.4-1.6l-16.4-21.8l15.7-11.8
		C134.3,90.2,134.7,89.5,134.6,88.7z M113.8,100.3c-0.5,0.3-0.8,0.8-0.8,1.4c-0.1,0.6,0.1,1.1,0.4,1.6l16.4,21.8L114,137l-16.4-21.8
		c-0.4-0.6-1.1-0.9-1.7-0.9c-0.4,0-0.9,0.1-1.3,0.4l-14.4,10.8l-7.6-60.2l55.7,24.1L113.8,100.3z"/>
</g>
</svg>
