<?xml version="1.0" encoding="utf-8"?>
<!-- Generator: Adobe Illustrator 21.1.0, SVG Export Plug-In . SVG Version: 6.00 Build 0)  -->
<svg version="1.1" id="Layer_1" xmlns="http://www.w3.org/2000/svg" xmlns:xlink="http://www.w3.org/1999/xlink" x="0px" y="0px"
	 viewBox="0 0 150 150" enable-background="new 0 0 150 150" xml:space="preserve">
<path fill="#FFBB54" d="M75,141.1c-36.4,0-66.1-29.6-66.1-66.1S38.6,8.9,75,8.9s66.1,29.6,66.1,66.1S111.4,141.1,75,141.1z M75,11.9
	c-34.8,0-63.1,28.3-63.1,63.1c0,34.8,28.3,63.1,63.1,63.1c34.8,0,63.1-28.3,63.1-63.1C138.1,40.2,109.8,11.9,75,11.9z M62.1,121.5
	c-0.9,0-1.9-0.1-2.8-0.4c-2.1-0.7-3.9-2.2-5.1-4.2L36.7,86.4c-1.3-2.1-2.5-7.4,2.9-12c2.7-2.3,5.2-2.5,6.7-2.3
	c2.2,0.3,3.8,1.8,4.6,3l11.2,19.4l35.3-61.2c2.5-4.4,8-6,12.3-3.7c2.2,1.2,3.7,3.1,4.4,5.5c0.7,2.4,0.4,4.8-0.9,6.9l-43.3,75
	C68.3,119.8,65.3,121.5,62.1,121.5z M45.3,75c-1.2,0-2.4,0.6-3.7,1.7c-4.8,4.1-2.4,8-2.3,8.2l17.6,30.5c0.8,1.4,2,2.4,3.4,2.9
	c2.7,0.9,5.7-0.2,7.1-2.7l43.3-75c0.8-1.4,1-3.1,0.6-4.6c-0.4-1.6-1.5-2.9-2.9-3.6c-2.8-1.5-6.5-0.4-8.2,2.6L63,98.9l-1.8,0
	l-0.5-0.8L48.3,76.6C48,76,47.1,75.2,45.8,75C45.7,75,45.5,75,45.3,75z"/>
</svg>
