<?xml version="1.0" encoding="utf-8"?>
<!-- Generator: Adobe Illustrator 21.1.0, SVG Export Plug-In . SVG Version: 6.00 Build 0)  -->
<svg version="1.1" id="Layer_1" xmlns="http://www.w3.org/2000/svg" xmlns:xlink="http://www.w3.org/1999/xlink" x="0px" y="0px"
	 viewBox="0 0 150 150" enable-background="new 0 0 150 150" xml:space="preserve">
<g>
	<rect x="41.4" y="27.4" fill="#FFBB54" width="54.1" height="3.6"/>
	<path fill="#FFBB54" d="M123.8,10.8H33.5c-3.3,0-6,2.7-6,6v96l-11.9,11.9c-1.9,1.9-1.9,4.9,0,6.8l6.1,6.1c0.9,0.9,2.1,1.4,3.4,1.4
		c1.3,0,2.5-0.5,3.4-1.4l0.5-0.5c1.1,1.4,2.8,2.2,4.6,2.2h90.3c3.3,0,6-2.7,6-6V16.8C129.8,13.5,127.1,10.8,123.8,10.8z
		 M123.8,137.3H33.5c-1.3,0-2.5-0.6-3.3-1.6l13.1-13.1H89V119h-42l2.8-2.8c0.9-0.9,1.4-2.1,1.4-3.4c0-1.1-0.4-2.2-1.1-3l0.2-0.2
		h64.4v-3.6H77.5c4.2-1.1,8.2-3.3,11.5-6.5c0.9-0.9,1.7-1.9,2.5-2.9l0-0.1h23.2v-3.6H93.7c1.5-3,2.3-6.2,2.6-9.5h18.5v-3.6H96.2
		l0-0.1l0,0c-0.3-3.3-1.2-6.5-2.7-9.4h21.3v-3.6H91.2l-0.1-0.1c-0.7-0.9-1.4-1.7-2.2-2.5c-3.8-3.8-8.5-6.1-13.4-6.9h39.1v-3.6H42.6
		v3.6h24.5c-4.9,0.8-9.6,3.1-13.4,6.9c-0.7,0.7-1.4,1.5-2.2,2.5l-0.1,0.1h-8.9v3.6h6.6c-1.5,2.9-2.4,6.2-2.7,9.5h-4v3.6h4
		c0.2,3.3,1.1,6.5,2.6,9.5h-6.5v3.6h7.3l-6.6,6.6c-1.9-1.5-4.7-1.4-6.4,0.3l-7.6,7.6V16.8c0-2.3,1.8-4.1,4.1-4.1h90.3
		c2.3,0,4.1,1.8,4.1,4.1v116.4C127.9,135.5,126.1,137.3,123.8,137.3z M23,136.2l-6.1-6.1c-1.1-1.1-1.1-3,0-4.1l21.4-21.4
		c0.6-0.6,1.3-0.8,2-0.8c0.7,0,1.4,0.2,1.9,0.7l6.2,6.2c0.5,0.5,0.8,1.3,0.8,2c0,0.8-0.3,1.5-0.8,2L27,136.2
		C25.9,137.3,24.1,137.3,23,136.2z M52.8,96.2L52.8,96.2l0.4-0.4l-0.5-0.7c-0.5-0.6-0.9-1.3-1.4-2.2l-0.1-0.1
		c-3.9-7-3.8-15.7,0.2-22.6l0.1-0.1c0.4-0.8,1-1.6,1.6-2.4c0.7-0.9,1.3-1.7,2-2.3c9-9,23.6-9,32.6,0c0.7,0.7,1.4,1.5,2,2.3l0.1,0.1
		c0.6,0.8,1.1,1.6,1.6,2.4c1.8,3.1,2.8,6.5,3,10.1c0.1,0.8,0.1,1.7,0,2.5l0,0c-0.2,3.5-1.1,7-2.8,10.1c-0.5,0.9-1,1.7-1.6,2.5
		c-0.7,0.9-1.5,1.9-2.3,2.7c-8,8-20.5,9-29.8,2.4l-0.7-0.5l-8.1,8.1h-0.7l-3.7-3.7L52.8,96.2z M65.2,105.9H53.9l3.5-3.5
		C59.9,104,62.5,105.2,65.2,105.9z"/>
	<rect x="42.6" y="40.5" fill="#FFBB54" width="72.2" height="3.6"/>
	<path fill="#FFBB54" d="M56.3,96.6L56.3,96.6c0.2,0.2,0.3,0.3,0.3,0.3l0,0c3.9,3.8,9.1,5.9,14.7,5.9c5.5,0,10.7-2.1,14.7-5.9l0,0
		l0,0c0.1-0.1,0.2-0.2,0.2-0.2l0.1-0.1c0.8-0.8,1.5-1.7,2.2-2.7c2.3-3.2,3.6-7,3.8-11c0-0.9,0-1.8,0-2.7c-0.3-4-1.7-7.8-4.1-11
		c-0.7-0.9-1.3-1.7-2-2.4c-0.1-0.1-0.2-0.1-0.3-0.2l-0.1-0.1c-8.2-7.8-21-7.8-29.2,0l-0.1,0.1c-0.1,0.1-0.2,0.1-0.2,0.2
		c-0.7,0.7-1.3,1.4-2,2.4c-5.4,7.3-5.5,17.2-0.3,24.7C54.8,94.9,55.6,95.8,56.3,96.6z M57.8,68.1c0,0,0.1-0.1,0.1-0.1
		c0.1-0.1,0.1-0.1,0.2-0.2c7.4-7.1,19.1-7.1,26.5,0c0.1,0.1,0.1,0.1,0.2,0.2c0,0,0.1,0.1,0.1,0.1c0.6,0.6,1.2,1.3,1.8,2.2
		c2.2,2.9,3.4,6.4,3.7,10l0,0c0.1,0.8,0.1,1.6,0,2.4c-0.2,3.6-1.4,7.1-3.5,10c-0.7,0.9-1.3,1.7-2.1,2.5l-0.1,0.1
		c-3.6,3.6-8.4,5.6-13.6,5.6c-5.1,0-10-2-13.6-5.6l-0.1-0.1c-0.7-0.7-1.4-1.5-2-2.5C50.9,86,51,77,55.9,70.3l0.1-0.1
		C56.6,69.4,57.2,68.7,57.8,68.1z"/>
	<path fill="#FFBB54" d="M67.9,89.7h6.6l1.3,4.6H83l-8.1-25.8l-0.6-0.1c-0.5-0.1-1-0.1-1.5-0.2c-0.9-0.1-2-0.1-2.9,0
		c-0.5,0-0.9,0.1-1.4,0.2l-0.6,0.1l-8.2,25.8h6.8L67.9,89.7z M62.3,92.4l7-22.2c0.2,0,0.5-0.1,0.7-0.1c0.8-0.1,1.8-0.1,2.6,0
		c0.2,0,0.5,0,0.8,0.1l7,22.2h-3.2l-1.3-4.6h-9.5l-1.3,4.6H62.3z"/>
	<path fill="#FFBB54" d="M71.3,70.9L67,85.6h8.2L71.3,70.9z M71.2,77.9l1.6,5.8h-3.2L71.2,77.9z"/>
</g>
</svg>
