<svg xmlns="http://www.w3.org/2000/svg" xmlns:xlink="http://www.w3.org/1999/xlink" version="1.1" xml:space="preserve" width="512" height="512"><rect id="backgroundrect" width="100%" height="100%" x="0" y="0" fill="none" stroke="none"/>


















<g class="currentLayer"><title>Layer 1</title><path d="M256,0C114.843,0,0,114.843,0,256s114.843,256,256,256s256-114.843,256-256S397.157,0,256,0z" id="svg_1" class="" fill-opacity="1" fill="#cde786"/><path d="M256,493.037C125.296,493.037,18.963,386.704,18.963,256S125.296,18.963,256,18.963  S493.037,125.296,493.037,256S386.704,493.037,256,493.037z" id="svg_2" class="" fill-opacity="1" fill="#def0a5"/><path d="M212.92499774169923,149.74100762939455 c-3.704,-3.704 -9.704,-3.704 -13.407,0 c-3.7030000000000003,3.704 -3.704,9.704 0,13.407 L292.3699977416992,256.00000762939453 L199.51799774169922,348.8520076293945 c-3.704,3.704 -3.704,9.704 0,13.407 c1.852,1.852 4.2780000000000005,2.778 6.704,2.778 c2.426,0 4.852,-0.926 6.704,-2.778 l99.556,-99.556 c3.704,-3.704 3.704,-9.704 0,-13.407 L212.92499774169923,149.74100762939455 z" id="svg_3" class="" fill-opacity="1" fill="#7ca500"/><path d="M227.8801318327864,140.01360414361744 c-4.048850748368012,-4.048850748368012 -10.60746427164233,-4.048850748368012 -14.655221917756464,0 c-4.047757646114134,4.048850748368012 -4.048850748368012,10.60746427164233 0,14.655221917756464 L314.7216403922077,256.1655565385517 L213.2249099150299,357.66228701572953 c-4.048850748368012,4.048850748368012 -4.048850748368012,10.60746427164233 0,14.655221917756464 c2.0244253741840055,2.0244253741840055 4.676291442094589,3.036638061276009 7.3281575100051715,3.036638061276009 c2.6518660679105825,0 5.303732135821165,-1.012212687092003 7.3281575100051715,-3.036638061276009 l108.82488798718299,-108.82488798718299 c4.048850748368012,-4.048850748368012 4.048850748368012,-10.60746427164233 0,-14.655221917756464 L227.8801318327864,140.01360414361744 z" class="" fill-opacity="1" fill="#7ca500" id="svg_19"/><path d="M220.25880657710846,144.0271401961472 c-3.882982305921292,-3.882982305921292 -10.17291044726248,-3.882982305921292 -14.054844431826881,0 c-3.8819339845644025,3.882982305921292 -3.882982305921292,10.17291044726248 0,14.054844431826881 L303.54269677525014,255.42071925794272 L206.20396214528154,352.7594538879113 c-3.882982305921292,3.882982305921292 -3.882982305921292,10.17291044726248 0,14.054844431826881 c1.9414911529606458,1.9414911529606458 4.484718764776266,2.91223672944097 7.027946376591885,2.91223672944097 c2.54322761181562,0 5.08645522363124,-0.9707455764803232 7.027946376591885,-2.91223672944097 l104.36668100656053,-104.36668100656053 c3.882982305921292,-3.882982305921292 3.882982305921292,-10.17291044726248 0,-14.054844431826881 L220.25880657710846,144.0271401961472 z" class="" fill-opacity="1" fill="#7ca500" id="svg_20"/><g id="svg_4">
</g><g id="svg_5">
</g><g id="svg_6">
</g><g id="svg_7">
</g><g id="svg_8">
</g><g id="svg_9">
</g><g id="svg_10">
</g><g id="svg_11">
</g><g id="svg_12">
</g><g id="svg_13">
</g><g id="svg_14">
</g><g id="svg_15">
</g><g id="svg_16">
</g><g id="svg_17">
</g><g id="svg_18">
</g></g></svg>